<svg width="30" height="32" viewBox="0 0 30 32" fill="none" xmlns="http://www.w3.org/2000/svg">
<rect x="3.96606" y="5.62305" width="22.5593" height="22.7872" fill="white"/>
<path d="M0.889771 0.825195L3.50289 28.1617L15.2283 31.2081L26.9864 28.1505L29.6016 0.825195H0.889771ZM24.1729 7.0881L23.3031 16.1948L23.3057 16.2439L23.3021 16.357V16.3561L22.6841 22.7236L22.616 23.2893L15.2457 25.1888L15.24 25.1937L7.88244 23.2835L7.38424 18.019H10.9922L11.2482 20.6959L15.2467 21.7058L15.2457 21.7077V21.7072L19.2591 20.6831L19.6832 16.3238H11.2934L11.2214 15.5869L11.0574 13.8605L10.9714 12.9335H20.0021L20.3306 9.54319H6.57601L6.50402 8.80676L6.34029 7.07987L6.25401 6.15286H24.259L24.1729 7.0881Z" fill="#5F91FF"/>
</svg>
