<svg xmlns="http://www.w3.org/2000/svg" version="1.1" xmlns:xlink="http://www.w3.org/1999/xlink" width="744" height="744"><svg width="744" height="744" viewBox="0 0 744 744" fill="none" xmlns="http://www.w3.org/2000/svg">
<g clip-path="url(#clip0_59_152)">
<path d="M179.326 688.261C172.553 682.863 172.181 675.456 172.328 667.58C172.608 652.606 172.307 637.621 172.487 622.644C172.525 619.466 171.455 618.381 168.479 617.624C132.017 608.343 106.697 586.714 94.6923 550.494C94.1981 549.003 93.7675 547.491 93.1995 545.229C92.4112 535.55 91.4915 526.641 91.1157 517.709C90.7249 508.421 90.8596 499.111 90.8538 489.377C90.8931 466.996 90.8431 445.048 90.8753 422.657C90.9019 397.355 90.8463 372.497 90.8712 347.192C90.9734 329.489 91.0307 312.233 91.008 294.977C90.9759 270.631 90.8846 246.285 90.9026 221.487C90.9339 216.731 90.8811 212.427 90.9142 207.771C90.9442 206.458 90.8884 205.497 90.915 204.083C90.998 199.052 90.9984 194.473 91.0845 189.502C91.5341 186.569 91.7803 184.006 92.2801 181.493C99.4791 145.302 121.56 122.21 155.772 110.229C162.62 107.831 170.083 107.186 177.714 105.783C182.182 105.783 186.197 105.694 190.212 105.69C226.836 105.647 263.46 105.619 300.543 105.647C321.353 105.674 341.705 105.639 362.509 105.665C371.742 105.678 380.523 105.63 389.743 105.636C406.948 105.638 423.714 105.589 440.85 105.594C441.961 105.613 442.704 105.578 443.89 105.609C462.084 105.632 479.834 105.59 498.033 105.61C522.75 105.995 547.035 105.876 571.28 106.798C586.499 107.376 600.909 112.185 613.161 121.384C621.577 127.702 628.915 135.456 636.761 142.557C636.788 142.545 636.736 142.539 636.813 142.795C637.153 143.271 637.416 143.491 637.674 143.647C637.669 143.583 637.57 143.663 637.624 143.938C638.019 144.613 638.361 145.012 638.842 145.713C650.469 161.14 654.811 178.747 655.101 197.182C655.646 231.786 655.31 266.405 655.273 301.485C655.241 326.838 655.277 351.723 655.256 377.066C655.237 398.2 655.275 418.875 655.261 440.004C655.249 453.74 655.29 467.023 655.282 480.753C655.225 492.476 655.556 503.765 655.102 515.022C654.71 524.752 653.425 534.445 652.445 544.518C651.792 547.228 651.228 549.575 650.55 552.242C650.325 553.229 650.214 553.898 650.147 554.622C650.191 554.677 650.176 554.536 649.907 554.747C649.212 556.488 648.787 558.018 648.397 559.545C648.433 559.541 648.384 559.488 648.124 559.713C644.602 565.969 641.341 572.001 637.938 578.208C637.796 578.381 637.656 578.808 637.706 578.83C637.757 578.852 637.749 578.742 637.504 578.845C637.086 579.251 636.914 579.554 636.774 579.855C636.808 579.854 636.757 579.81 636.475 579.968C632.853 583.923 629.512 587.719 625.943 591.595C625.534 591.938 625.353 592.201 624.897 592.583C623.524 593.849 622.427 594.997 621.031 596.287C618.037 598.664 615.34 600.899 612.404 603.186C611.978 603.496 611.79 603.754 611.646 604.04C611.69 604.066 611.666 603.967 611.412 604.04C610.93 604.363 610.701 604.613 610.548 604.876C610.625 604.889 610.57 604.744 610.289 604.82C609.577 605.253 609.145 605.611 608.753 605.99C608.793 606.012 608.78 605.921 608.522 605.986C608.034 606.301 607.803 606.552 607.632 606.806C607.692 606.808 607.614 606.717 607.422 606.76C607.229 606.803 606.916 607.044 606.677 607.051C606.103 607.181 605.909 607.418 605.575 607.845C604.842 608.249 604.391 608.579 603.979 608.923C604.019 608.938 603.943 608.892 603.667 608.929C602.936 609.274 602.482 609.582 602.051 609.915C602.074 609.94 602.032 609.888 601.731 609.932C601.139 610.247 600.848 610.517 600.431 610.745C600.306 610.702 600.12 610.89 599.772 610.922C596.39 612.356 593.356 613.757 590.152 615.09C589.984 615.022 589.668 615.204 589.369 615.333C586.942 616.167 584.813 616.871 582.363 617.577C581.619 617.642 581.197 617.704 580.498 617.728C579.747 617.962 579.273 618.234 578.48 618.501C577.745 618.572 577.327 618.648 576.51 618.675C569.603 619.319 563.096 620.012 556.162 620.646C553.438 620.63 551.139 620.673 548.393 620.645C505.069 620.566 462.193 620.53 419.317 620.557C389.339 620.576 359.361 620.68 328.96 620.781C327.014 621.063 325.484 621.553 323.967 621.514C317.332 621.34 310.7 621.013 303.725 620.701C268.107 641.976 232.795 663.231 197.601 684.682C193.019 687.475 188.42 688.981 182.765 688.466C181.37 688.334 180.348 688.298 179.326 688.261ZM570.144 359.725C570.659 341.99 568.954 324.437 565.246 307.122C558.804 277.045 546.393 249.797 526.031 226.463C525.126 225.427 523.904 223.94 522.803 223.918C513.091 223.718 503.373 223.802 493.084 223.802C519.373 264.87 529.602 309.533 529.438 356.865C529.273 404.358 518.493 448.964 491.211 489.061C501.104 489.061 510.455 489.146 519.802 488.978C521.353 488.95 523.298 488.218 524.346 487.125C527.23 484.116 529.902 480.866 532.362 477.494C557.739 442.705 569.182 403.387 570.144 359.725ZM218.884 324.895C222.892 289.06 232.668 255.175 253.355 224.506C245.697 224.506 238.62 225.069 231.678 224.345C224.962 223.645 221.221 226.702 217.419 231.565C191.471 264.753 178.951 302.833 176.442 344.411C174.976 368.703 177.433 392.754 184.151 416.226C191.467 441.789 203.463 464.936 220.713 485.244C222.049 486.816 224.12 488.72 225.912 488.787C235.328 489.141 244.763 488.953 254.301 488.953C222.791 438.559 212.842 383.904 218.884 324.895ZM302.586 331.184C288.885 331.184 275.185 331.169 261.485 331.191C256.658 331.199 254.714 333.035 254.7 337.655C254.664 349.424 254.654 361.193 254.704 372.962C254.724 377.684 256.682 379.569 261.436 379.571C293.027 379.585 324.618 379.586 356.21 379.569C361.236 379.566 363.04 377.715 363.053 372.568C363.083 361.283 363.072 349.997 363.06 338.712C363.054 332.736 361.451 331.188 355.292 331.186C338.046 331.179 320.8 331.184 302.586 331.184ZM472.89 331.184C445.667 331.184 418.444 331.178 391.221 331.188C385.748 331.19 384.169 332.403 384.126 337.235C384.018 349.318 384.11 361.402 384.073 373.486C384.06 377.646 385.938 379.609 390.183 379.603C421.917 379.557 453.65 379.569 485.383 379.59C489.511 379.593 491.661 377.682 491.669 373.514C491.691 361.43 491.706 349.346 491.709 337.262C491.71 333.11 489.589 331.13 485.453 331.175C481.588 331.217 477.721 331.184 472.89 331.184Z" fill="black" style="fill:black;fill-opacity:1;"></path>
<path d="M177.261 105.733C170.082 107.186 162.62 107.831 155.771 110.229C121.559 122.21 99.4784 145.302 92.2794 181.493C91.7796 184.006 91.5334 186.569 90.7788 189.657C89.6135 192.636 88.8388 195.066 88.4679 196.23C84.0925 203.957 74.6123 201.373 69.7675 208.591C67.3461 212.199 61.4624 213.429 57.2454 215.906C55.302 217.048 53.3352 218.362 51.8428 220.016C48.5391 223.678 45.717 227.781 42.3495 231.378C38.4631 235.529 34.0583 239.192 30.1443 243.319C26.5249 247.135 23.6314 251.908 17.2578 251C9.64585 219.685 15.2722 191.574 35.1997 165.631C58.077 135.846 79.4878 104.938 101.678 74.6221C110.942 61.9664 120.293 49.3533 130.151 37.1625C135.48 30.5724 142.682 26.2605 150.428 22.317C161.601 16.6292 173.139 14.4352 185.115 15.7786C195.177 16.9071 205.081 19.7349 214.946 22.241C230.859 26.2835 246.684 30.6729 262.539 34.9409C263.763 35.2703 264.933 35.7969 265.869 36.5792C264.242 37.6153 262.214 37.9494 261.622 39.0539C259.052 43.8476 257.306 49.1222 254.418 53.6896C253.071 55.821 252.381 57.025 253.947 59.0223C255.584 61.1079 255.638 62.9101 254.174 65.5099C251.668 69.9581 249.106 74.7427 248.272 79.6745C247.178 86.1402 246.924 92.7911 250.17 99.2789C251.962 102.86 253.14 103.525 256.439 101.645C259.56 99.8678 261.769 100.371 260.995 104.678C234.601 104.686 208.659 104.669 182.716 104.738C180.897 104.743 179.08 105.386 177.261 105.733Z" fill="#FE166E" style="fill:#FE166E;fill:color(display-p3 0.9961 0.0863 0.4314);fill-opacity:1;"></path>
<path d="M636.736 142.568C628.915 135.456 621.577 127.702 613.161 121.384C600.909 112.185 586.499 107.376 571.28 106.798C547.035 105.876 522.75 105.994 498.028 105.405C497.574 105.137 497.574 104.727 498.023 104.718C502.687 104.695 506.901 104.681 511.569 104.676C519.459 104.676 526.896 104.666 534.787 104.669C541.527 104.685 547.815 104.774 554.099 104.647C556.316 104.602 558.561 104.186 560.724 103.657C563.491 102.981 564.165 101.825 561.783 99.4299C560.538 98.1771 560.144 96.0204 559.519 94.2189C558.549 91.4219 558.493 87.8282 556.655 85.9091C552.514 81.5866 551.134 75.0055 545.226 72.1474C544.639 71.8633 544.266 69.6037 544.741 68.9259C546.592 66.2872 545.03 64.8502 543.344 63.204C541.996 61.8886 540.734 60.4676 539.567 58.9885C534.163 52.1402 529.071 45.0712 523.016 38.7089C520.66 36.2345 519.564 32.6231 515.582 31.909C515.335 31.8647 515.306 31.0095 515.033 30.6368C513.864 29.0454 512.637 27.4975 511.441 25.9264C506.907 19.9707 497.15 17.5828 499.037 7.68839C491.682 7.68839 484.579 7.72902 477.477 7.65854C475.797 7.64185 474.12 7.25204 472.441 7.03387C496.189 1.86363 517.841 6.51077 536.885 21.6035C570.915 48.5717 604.728 75.8126 638.762 103.613C638.909 107.89 641.378 107.68 643.846 107.47C643.846 107.47 643.72 107.553 643.725 107.911C643.55 110.922 642.669 113.761 643.319 116.19C645.357 123.798 645.58 123.738 638.065 125.892C637.627 131.382 637.181 136.975 636.736 142.568Z" fill="#2397FE" style="fill:#2397FE;fill:color(display-p3 0.1373 0.5922 0.9961);fill-opacity:1;"></path>
<path d="M17.3438 251.388C23.6321 251.908 26.5257 247.135 30.145 243.319C34.059 239.192 38.4639 235.529 42.3502 231.378C45.7178 227.782 48.5399 223.678 51.8436 220.016C53.3359 218.362 55.3028 217.048 57.2462 215.906C61.4632 213.429 67.3469 212.199 69.7682 208.591C74.6131 201.373 84.0932 203.957 88.4686 196.23C88.8395 195.067 89.6142 192.636 90.6939 190.05C90.9985 194.473 90.9981 199.052 90.7282 204.292C90.582 206.011 90.7052 207.067 90.8284 208.123C90.8812 212.427 90.934 216.731 90.6712 221.752C89.9824 224.303 89.3156 226.134 89.2869 227.974C89.1629 235.921 89.2258 243.871 88.867 251.855C85.5474 253.103 82.678 254.922 79.5971 255.412C71.1251 256.761 64.5406 261.704 57.9043 266.373C54.0813 269.063 51.4001 273.342 47.6652 276.2C40.8672 281.402 34.7518 287.008 30.8154 294.803C30.1745 296.072 27.8605 296.496 26.0195 297.31C25.3188 297.311 24.9183 297.312 24.5179 297.314C24.0563 293.891 23.5946 290.468 23.2439 286.202C22.5299 278.913 21.8158 272.448 20.8192 266.028C20.4763 263.819 19.4286 261.72 18.7028 259.57C18.2782 256.972 17.8536 254.374 17.3438 251.388Z" fill="#FB1678" style="fill:#FB1678;fill:color(display-p3 0.9843 0.0863 0.4706);fill-opacity:1;"></path>
<path d="M395.118 715.483C388.46 716.665 381.823 717.993 375.137 718.996C364.665 720.568 354.161 721.92 343.059 723.086C339.906 721.876 339.157 720.655 341.264 718.314C344.673 714.527 347.922 710.589 351.135 706.631C355.149 701.686 358.881 696.502 363.052 691.697C370.824 682.745 378.751 673.923 386.77 665.192C389.701 662.001 393.08 659.221 396.254 656.254C397.777 654.829 399.686 653.645 400.751 651.935C403.843 646.968 406.547 641.76 409.516 636.714C410.292 635.397 411.534 634.364 412.473 633.133C415.273 629.464 420.273 627.252 420.589 621.603C432.674 621.603 444.305 621.626 455.893 622.001C455.365 622.954 454.945 624.008 454.385 624.088C446.262 625.258 442.474 631.662 439.848 637.904C436.637 645.537 431.812 651.357 426.058 657.018C420.535 662.451 415.959 668.844 410.953 674.804C404.065 683.005 396.924 691.009 390.364 699.465C386.782 704.083 383.552 709.332 386.848 715.483C389.676 715.483 392.397 715.483 395.118 715.483Z" fill="#FFB613" style="fill:#FFB613;fill:color(display-p3 1.0000 0.7137 0.0745);fill-opacity:1;"></path>
<path d="M435.618 709.693C435.233 709.784 434.848 709.875 434.028 709.716C432.666 709.811 431.74 710.156 430.813 710.501C429.427 710.836 428.042 711.17 426.02 711.22C422.766 710.936 420.148 710.936 417.156 710.936C417.874 708.643 419.533 706.102 418.857 705.015C416.302 700.907 419.169 698.787 421.298 696.452C426.558 690.683 432.057 685.132 437.301 679.35C439.647 676.763 441.212 673.351 443.835 671.152C449.495 666.407 455.637 662.571 459.475 655.628C463.79 647.822 468.911 640.416 470.284 631.476C471 626.819 473.586 625.43 477.412 624.382C478.786 624.006 479.871 622.572 481.544 621.601C490.936 621.58 499.872 621.58 508.807 621.58C508.898 622.082 508.989 622.584 509.08 623.085C507.656 624.281 506.127 625.375 504.843 626.705C503.91 627.671 502.819 628.88 502.644 630.102C502.272 632.696 502.451 635.369 502.066 638.045C499.811 640.756 497.7 643.314 496.016 646.127C491.529 653.617 487.26 661.236 482.84 668.767C479.716 674.088 476.307 679.251 473.362 684.667C471.05 688.919 469.267 693.457 467.218 697.854C466.52 699.353 465.728 700.808 464.978 702.282C466.719 702.796 468.433 703.529 470.21 703.753C471.592 703.928 473.05 703.429 474.48 703.299C482.1 702.609 489.723 701.941 497.345 701.265C479.162 703.792 460.98 706.319 441.96 708.789C439.288 709.051 437.453 709.372 435.618 709.693Z" fill="#FFCA10" style="fill:#FFCA10;fill:color(display-p3 1.0000 0.7922 0.0627);fill-opacity:1;"></path>
<path d="M472.073 7.02869C474.119 7.25204 475.796 7.64185 477.477 7.65854C484.578 7.72902 491.681 7.68839 499.036 7.68839C497.149 17.5828 506.906 19.9707 511.44 25.9264C512.636 27.4975 513.864 29.0454 515.032 30.6368C515.306 31.0095 515.335 31.8647 515.582 31.909C519.563 32.6231 520.66 36.2345 523.015 38.7089C529.07 45.0712 534.162 52.1402 539.566 58.9885C540.733 60.4676 541.995 61.8886 543.343 63.204C545.03 64.8502 546.591 66.2872 544.741 68.9259C544.265 69.6037 544.638 71.8633 545.226 72.1474C551.133 75.0055 552.514 81.5866 556.654 85.9091C558.493 87.8282 558.548 91.4219 559.519 94.2189C560.144 96.0204 560.537 98.1771 561.783 99.4299C564.164 101.825 563.491 102.981 560.724 103.657C558.56 104.186 556.315 104.602 554.098 104.647C547.814 104.774 541.526 104.685 534.829 104.317C534.12 101.889 534.554 98.7501 533.391 97.9599C529.694 95.447 529.921 92.9888 532.421 89.9438C526.269 83.0478 520.171 76.4519 514.381 69.5963C512.272 67.1002 511.565 62.9524 509.068 61.3367C499.688 55.2672 495.151 45.1581 487.882 37.3854C485.694 35.0457 483.785 32.4365 481.527 30.1714C473.593 22.2132 462.998 19.1025 453.078 14.774C459.287 12.1905 465.496 9.60702 472.073 7.02869Z" fill="#2B93FF" style="fill:#2B93FF;fill:color(display-p3 0.1686 0.5765 1.0000);fill-opacity:1;"></path>
<path d="M443.445 105.543C442.702 105.578 441.959 105.613 440.826 105.38C440.435 105.111 440.383 104.685 440.283 104.382C439.363 103.096 438.543 102.112 437.723 101.13C425.45 86.4353 410.645 75.4228 391.885 69.5247C384.48 67.545 377.343 65.8088 370.128 63.9629C370.05 63.8532 370.008 63.5866 370.008 63.5866C379.205 58.1414 388.388 52.6705 397.614 47.2752C399.229 46.3312 401.029 45.7054 403.309 44.6905C404.119 44.1517 404.364 43.855 404.609 43.5583C404.609 43.5583 404.609 43.6462 404.888 43.6388C405.617 43.2642 406.067 42.8969 406.517 42.5297C406.517 42.5297 406.526 42.6274 406.894 42.6707C409.148 43.0491 411.16 43.0724 412.896 43.7755C419.154 46.309 426.418 47.7977 431.298 52.0054C442.417 61.5908 452.36 72.5421 462.76 82.9587C468.729 88.9375 471.541 96.6738 475.523 104.699C467.625 104.699 460.722 104.608 453.824 104.736C450.36 104.801 446.904 105.262 443.445 105.543Z" fill="#4C78F4" style="fill:#4C78F4;fill:color(display-p3 0.2980 0.4706 0.9569);fill-opacity:1;"></path>
<path d="M481.089 621.622C479.872 622.572 478.788 624.006 477.413 624.382C473.588 625.43 471.001 626.819 470.286 631.476C468.913 640.416 463.792 647.822 459.477 655.628C455.639 662.571 449.496 666.407 443.836 671.152C441.214 673.351 439.649 676.763 437.302 679.35C432.058 685.132 426.559 690.683 421.3 696.452C419.171 698.787 416.303 700.907 418.858 705.015C419.535 706.102 417.876 708.643 417.158 710.936C420.15 710.936 422.768 710.936 425.661 711.187C420.274 712.204 414.611 712.97 408.128 713.654C405.78 713.892 404.252 714.211 402.723 714.531C402.402 714.618 402.081 714.705 401.111 714.665C398.967 714.814 397.472 715.09 395.978 715.365C395.978 715.365 395.554 715.466 395.336 715.474C392.397 715.483 389.676 715.483 386.848 715.483C383.553 709.332 386.782 704.083 390.364 699.465C396.924 691.009 404.065 683.005 410.954 674.804C415.959 668.844 420.536 662.451 426.058 657.018C431.812 651.357 436.637 645.537 439.848 637.904C442.474 631.662 446.262 625.258 454.385 624.088C454.945 624.008 455.366 622.954 456.349 621.974C464.927 621.603 473.008 621.612 481.089 621.622Z" fill="#FFBF12" style="fill:#FFBF12;fill:color(display-p3 1.0000 0.7490 0.0706);fill-opacity:1;"></path>
<path d="M497.718 701.242C489.721 701.941 482.099 702.609 474.478 703.299C473.048 703.429 471.59 703.928 470.208 703.753C468.431 703.529 466.718 702.796 464.977 702.282C465.726 700.808 466.518 699.353 467.216 697.854C469.265 693.457 471.048 688.919 473.36 684.667C476.305 679.251 479.714 674.088 482.838 668.767C487.258 661.236 491.527 653.617 496.014 646.127C497.698 643.314 499.809 640.756 502.328 638.262C506.337 644.427 509.726 650.423 513.183 656.379C513.461 656.857 514.16 657.226 514.734 657.376C518.919 658.471 519.86 662.039 521.556 665.384C523.587 669.391 525.934 673.835 529.396 676.394C536.614 681.728 544.589 686.065 552.412 690.532C554.135 691.517 556.577 691.84 558.591 691.612C566.657 690.7 574.685 689.451 583.113 688.329C584.53 688.332 585.56 688.332 586.59 688.543C586.589 688.754 586.584 689.175 586.584 689.175C570.745 691.429 554.916 693.753 539.065 695.916C525.42 697.779 511.751 699.459 497.718 701.242Z" fill="#FDD410" style="fill:#FDD410;fill:color(display-p3 0.9922 0.8314 0.0627);fill-opacity:1;"></path>
<path d="M369.628 63.4809C370.01 63.5866 370.052 63.8532 369.782 63.9547C368.63 64.685 367.747 65.3138 366.898 65.9503C366.933 65.9581 366.902 65.8945 366.57 65.9308C364.834 66.9279 363.429 67.8887 362.057 68.8598C362.09 68.8701 362.085 68.8026 361.856 68.83C361.627 68.8574 361.182 68.9793 360.866 69.0577C358.711 70.3081 356.873 71.4801 354.787 72.6876C354.148 73.0163 353.756 73.3097 353.119 73.7232C352.624 74.1061 352.375 74.3688 351.857 74.8128C346.458 77.8514 341.291 80.6443 336.206 83.58C326.83 88.9924 317.504 94.4887 307.752 99.9219C305.962 100.185 304.447 100.213 303.214 100.816C299.501 102.631 297.266 101.61 294.805 98.2391C289.016 90.3103 288.958 81.3216 289.305 72.3131C289.66 63.0929 290.714 53.8995 291.859 44.6965C294.615 44.9841 296.973 45.2696 299.331 45.555C299.331 45.555 299.236 45.5827 299.418 45.8446C303.385 46.8812 307.171 47.6558 310.957 48.4305C310.957 48.4305 310.854 48.4463 311.017 48.7248C314.329 49.6906 317.477 50.3778 320.625 51.065C320.625 51.065 320.745 50.9585 320.842 51.3374C328.58 53.5222 336.219 55.3282 343.859 57.1342C343.859 57.1342 343.76 57.1599 343.938 57.4287C348.553 58.7223 352.99 59.7472 357.428 60.772C357.428 60.772 357.487 60.6915 357.586 61.0404C359.788 61.667 361.89 61.9447 363.993 62.2224C365.744 62.6067 367.494 62.991 369.628 63.4809Z" fill="#F41683" style="fill:#F41683;fill:color(display-p3 0.9569 0.0863 0.5137);fill-opacity:1;"></path>
<path d="M291.459 44.6943C290.712 53.8995 289.658 63.0928 289.303 72.3131C288.955 81.3215 289.014 90.3102 294.803 98.239C297.264 101.61 299.498 102.631 303.212 100.816C304.445 100.213 305.959 100.185 307.519 100.161C305.842 101.545 303.992 102.661 301.841 103.777C301.045 104.077 300.55 104.376 299.608 104.676C286.589 104.676 274.018 104.674 261.446 104.673C261.768 100.371 259.559 99.8678 256.438 101.645C253.138 103.525 251.96 102.86 250.168 99.2789C246.922 92.7911 247.177 86.1402 248.271 79.6744C249.105 74.7427 251.666 69.9581 254.172 65.5099C255.637 62.9101 255.582 61.1078 253.946 59.0223C252.379 57.0249 253.069 55.821 254.417 53.6895C257.304 49.1222 259.05 43.8476 261.62 39.0539C262.213 37.9494 264.241 37.6153 266.028 36.9071C269.707 37.8607 272.967 38.8338 276.853 40.1381C280.249 40.867 283.02 41.2647 285.791 41.6624C285.791 41.6624 285.703 41.6899 285.859 41.9521C287.829 43.041 289.644 43.8676 291.459 44.6943Z" fill="#FB1678" style="fill:#FB1678;fill:color(display-p3 0.9843 0.0863 0.4706);fill-opacity:1;"></path>
<path d="M636.76 142.557C637.18 136.975 637.626 131.381 638.063 125.892C645.579 123.738 645.355 123.798 643.318 116.19C642.667 113.761 643.549 110.922 643.77 107.852C657.639 118.393 671.593 129.199 685.222 140.4C689.759 144.128 693.462 148.869 697.832 153.662C698.436 154.419 698.755 154.66 699.074 154.901C699.074 154.901 698.953 154.912 699.029 155.116C699.387 155.518 699.668 155.717 699.949 155.915C699.949 155.915 699.849 155.966 699.846 156.296C699.834 157.382 699.825 158.136 699.812 159.281C698.947 160.703 698.254 161.989 697.181 162.705C695.897 163.562 694.256 163.863 692.828 164.528C688.591 166.501 684.52 168.941 680.126 170.439C674.97 172.198 669.774 174.855 663.96 172.601C663.493 172.42 662.385 173.421 661.809 174.078C660.127 175.993 658.491 177.959 656.987 180.015C656.271 180.993 655.42 182.228 655.44 183.332C655.629 193.579 655.995 203.822 656.294 214.519C656.293 223.058 656.308 231.143 656.301 239.682C656.297 250.479 656.314 260.822 656.303 271.619C656.262 281.745 656.249 291.416 656.01 301.095C655.784 301.102 655.339 301.017 655.339 301.017C655.309 266.405 655.645 231.786 655.1 197.182C654.81 178.747 650.468 161.14 639.088 145.54C638.654 144.598 638.111 144.131 637.568 143.663C637.568 143.663 637.668 143.583 637.632 143.373C637.308 142.955 637.021 142.747 636.734 142.539C636.734 142.539 636.786 142.545 636.76 142.557Z" fill="#1E98F7" style="fill:#1E98F7;fill:color(display-p3 0.1176 0.5961 0.9686);fill-opacity:1;"></path>
<path d="M586.593 688.332C585.562 688.332 584.532 688.332 583.066 688.003C581.097 686.305 579.737 684.639 577.997 683.627C573.611 681.077 568.479 679.497 564.702 676.285C559.367 671.749 554.733 666.297 550.282 660.842C547.47 657.396 542.532 655.313 542.522 649.846C542.522 649.615 542.103 649.388 541.885 649.154C535.652 642.468 529.421 635.782 522.348 628.193C525.715 625.553 527.955 622.438 530.649 621.975C535.941 621.066 541.486 621.633 546.93 621.944C547.7 623.408 548.269 624.753 549.266 625.586C554.8 630.21 561.229 634.023 565.887 639.386C577.906 653.225 593.234 662.965 607.291 674.259C610.641 676.951 615.107 678.653 619.937 676.743C621.665 676.059 623.69 676.126 625.58 675.851C618.345 679.074 611.111 682.297 603.347 685.318C602.25 685.524 601.683 685.932 601.115 686.339C600.725 686.387 600.335 686.435 599.267 686.458C597.474 686.805 596.36 687.177 595.245 687.549C595.245 687.549 595.016 687.665 594.465 687.549C591.473 687.733 589.033 688.033 586.593 688.332Z" fill="#EAD819" style="fill:#EAD819;fill:color(display-p3 0.9176 0.8471 0.0980);fill-opacity:1;"></path>
<path d="M656.312 214.066C655.997 203.822 655.631 193.579 655.442 183.332C655.421 182.228 656.273 180.993 656.989 180.015C658.493 177.959 660.129 175.993 661.811 174.078C662.387 173.421 663.494 172.42 663.962 172.601C669.775 174.855 674.972 172.197 680.128 170.439C684.522 168.941 688.592 166.501 692.83 164.528C694.258 163.863 695.899 163.562 697.183 162.705C698.255 161.989 698.949 160.703 700.17 159.277C701.006 158.856 701.481 158.829 701.957 158.801C702.298 158.858 702.542 159.044 702.732 159.895C703.14 160.86 703.501 161.288 703.863 161.716C703.863 161.716 703.762 161.735 703.752 162.057C704.52 163.3 705.298 164.222 706.077 165.144C706.077 165.144 706.096 165.267 706.028 165.587C706.213 166.128 706.465 166.349 706.718 166.57C706.718 166.57 706.618 166.61 706.624 166.919C707.313 168.299 707.996 169.369 708.679 170.439C708.679 170.439 708.586 170.465 708.596 170.73C708.938 171.463 709.271 171.93 709.603 172.396C709.603 172.396 709.512 172.427 709.52 172.736C709.931 173.769 710.335 174.492 710.738 175.215C710.738 175.215 710.627 175.236 710.604 175.502C710.897 176.261 711.212 176.754 711.528 177.247C711.528 177.247 711.445 177.265 711.45 177.575C711.838 178.625 712.22 179.364 712.602 180.104C712.602 180.104 712.507 180.121 712.478 180.457C712.915 181.735 713.38 182.677 713.846 183.619C713.846 183.619 713.869 183.792 713.682 184.257C714.214 192.196 718.129 199.822 710.674 207.843C703.065 208.574 693.64 209.496 684.21 210.362C683.006 210.472 681.758 210.397 680.56 210.214C675.676 209.468 671.216 207.881 665.762 209.603C662.229 210.718 659.648 213.058 656.312 214.066Z" fill="#1B98ED" style="fill:#1B98ED;fill:color(display-p3 0.1059 0.5961 0.9294);fill-opacity:1;"></path>
<path d="M712.704 433.681C715.435 441.867 718.166 450.053 720.661 458.769C718.605 463.226 716.425 463.432 712.609 461.194C707.428 458.156 701.619 456.202 696.135 453.662C691.531 451.53 687.172 448.745 682.41 447.104C673.981 444.199 666.131 438.104 656.298 441.213C656.234 440.446 656.199 440.008 656.191 439.118C656.262 426.72 656.305 414.773 656.703 402.866C669.934 407.134 682.937 410.946 694.9 417.638C700.422 420.727 707.384 421.417 710.768 427.817C710.768 427.817 710.665 427.859 710.607 428.163C710.936 429.229 711.322 429.99 711.708 430.752C711.708 430.752 711.599 430.777 711.555 431.085C711.91 432.156 712.307 432.918 712.704 433.681Z" fill="#23C87F" style="fill:#23C87F;fill:color(display-p3 0.1373 0.7843 0.4980);fill-opacity:1;"></path>
<path d="M271.107 734.034C260.434 735.61 249.762 737.187 238.703 738.359C243.093 734.372 247.49 730.037 252.737 727.385C260.709 723.356 267.901 718.59 274.031 712.109C277.983 707.929 282.107 703.907 286.25 699.914C290.237 696.07 294.574 692.567 298.354 688.536C304.86 681.598 310.907 674.229 317.425 667.303C322.352 662.067 327.982 657.483 332.809 652.163C338.046 646.391 342.748 640.129 347.619 634.029C350.888 629.936 354.044 625.753 357.702 621.585C362.69 621.585 367.226 621.61 371.727 621.975C368.009 627.224 364.623 632.395 360.584 636.991C351.036 647.857 341.173 658.447 331.448 669.158C329.62 671.171 327.776 673.175 326.049 675.273C320.403 682.13 315.039 689.235 309.135 695.86C301.958 703.913 294.362 711.593 286.907 719.396C284.577 721.835 282.495 725.321 279.628 726.249C275.242 727.668 273.145 730.576 271.107 734.034Z" fill="#FF9120" style="fill:#FF9120;fill:color(display-p3 1.0000 0.5686 0.1255);fill-opacity:1;"></path>
<path d="M656.293 214.519C659.645 213.058 662.226 210.718 665.759 209.603C671.213 207.881 675.673 209.468 680.557 210.214C681.755 210.397 683.003 210.472 684.207 210.362C693.637 209.496 703.062 208.574 710.671 207.843C718.126 199.822 714.211 192.196 713.627 184.327C718.096 195.464 717.904 207.43 716.752 219.384C715.974 227.463 714.463 235.471 712.758 243.958C711.164 246.287 710.092 248.169 709.493 249.222C705.271 247.556 702.205 245.857 698.929 245.172C694.551 244.258 689.668 245.028 685.606 243.485C676.065 239.861 666.495 237.843 656.321 239.229C656.307 231.143 656.292 223.058 656.293 214.519Z" fill="#199AE4" style="fill:#199AE4;fill:color(display-p3 0.0980 0.6039 0.8941);fill-opacity:1;"></path>
<path d="M41.8321 402.85C40.9431 398.235 40.054 393.62 39.3746 388.324C39.3883 384.81 38.9514 381.968 39.0835 379.152C39.1677 377.36 39.5358 374.836 40.7373 373.963C48.4815 368.334 56.4576 363.083 65.0418 358.69C72.3623 354.944 79.139 350.135 86.1563 345.795C88.4406 344.383 89.3589 345.209 89.2563 348.141C89.2384 359.865 88.9053 371.154 89.3589 382.412C89.5808 387.92 87.0026 389.954 82.5039 391.76C76.0286 394.359 69.7225 397.442 63.5391 400.689C57.1062 404.068 50.9049 407.889 44.6814 411.47C43.5974 408.191 42.7148 405.52 41.8321 402.85Z" fill="#D8179F" style="fill:#D8179F;fill:color(display-p3 0.8471 0.0902 0.6235);fill-opacity:1;"></path>
<path d="M357.25 621.61C354.043 625.753 350.887 629.936 347.618 634.029C342.747 640.129 338.044 646.391 332.807 652.163C327.981 657.483 322.351 662.066 317.423 667.303C310.906 674.229 304.858 681.598 298.353 688.536C294.573 692.567 290.236 696.07 286.249 699.913C282.106 703.907 277.982 707.929 274.029 712.109C267.9 718.59 260.708 723.356 252.736 727.385C247.489 730.037 243.092 734.372 238.275 738.292C234.5 738.912 230.765 739.194 226.98 738.87C228.044 737.662 229.25 737.184 230.255 736.436C237.43 731.094 244.152 724.998 251.81 720.486C262.338 714.281 267.985 703.844 275.781 695.3C279.909 690.775 283.232 685.507 286.836 680.516C290.047 676.069 293.145 671.541 296.633 667.012C298.815 664.854 300.401 662.422 302.54 660.661C316.118 649.477 326.721 635.708 337.384 621.553C344.308 621.555 350.779 621.582 357.25 621.61Z" fill="#FF8923" style="fill:#FF8923;fill:color(display-p3 1.0000 0.5373 0.1373);fill-opacity:1;"></path>
<path d="M296.293 667.048C293.145 671.541 290.047 676.069 286.836 680.516C283.232 685.508 279.909 690.775 275.781 695.3C267.984 703.844 262.338 714.281 251.81 720.486C244.152 724.998 237.429 731.094 230.255 736.436C229.25 737.184 228.044 737.662 226.737 738.544C215.314 738.78 205.667 734.578 196.729 727.127C196.072 726.489 195.762 726.324 195.452 726.159C195.155 726.128 194.924 725.989 194.6 725.284C194.141 724.632 193.839 724.438 193.538 724.244C193.538 724.244 193.65 724.224 193.548 724.02C193.135 723.632 192.824 723.45 192.514 723.267C192.214 723.23 191.986 723.082 191.765 722.294C191.256 721.5 190.813 721.236 190.37 720.972C190.37 720.972 190.241 720.804 190.326 720.437C190.102 719.93 189.792 719.788 189.482 719.647C189.482 719.647 189.503 719.481 189.519 719.277C189.23 718.889 188.925 718.704 188.619 718.52C188.619 718.52 188.735 718.467 188.677 718.259C188.323 717.858 188.027 717.664 187.73 717.47C187.73 717.47 187.828 717.46 187.85 717.152C187.882 716.375 187.893 715.905 188.142 715.17C190.987 715.411 193.577 716.04 196.204 716.384C198.182 716.642 200.324 716.99 202.191 716.511C209.395 714.665 216.658 712.891 223.633 710.356C231.402 707.532 239.003 704.157 246.424 700.506C249.221 699.13 251.308 696.309 254.065 694.11C264.831 689.259 275.131 684.279 283.931 676.671C287.876 673.26 292.162 670.244 296.293 667.048Z" fill="#FF852B" style="fill:#FF852B;fill:color(display-p3 1.0000 0.5216 0.1686);fill-opacity:1;"></path>
<path d="M319.528 726.976C318.14 727.31 316.751 727.644 314.722 727.686C307.035 728.031 299.988 728.668 292.742 729.323C296.652 725.688 300.612 722.418 304.088 718.696C314.487 707.562 324.818 696.359 334.939 684.972C342.14 676.869 348.828 668.31 355.986 660.166C363.017 652.165 370.485 644.548 377.504 636.537C381.652 631.803 385.3 626.632 389.626 621.627C394.937 621.618 399.795 621.641 404.654 622.012C403.978 623.582 403.443 624.912 402.599 626.005C399.562 629.934 396.34 633.722 393.339 637.678C389.104 643.259 385.341 649.237 380.754 654.502C375.685 660.319 369.96 665.571 364.437 670.983C355.715 679.53 350.349 690.805 341.014 698.962C334.679 704.498 329.227 711.119 323.854 717.645C321.746 720.206 320.932 723.834 319.528 726.976Z" fill="#FFA119" style="fill:#FFA119;fill:color(display-p3 1.0000 0.6314 0.0980);fill-opacity:1;"></path>
<path d="M389.172 621.658C385.299 626.632 381.651 631.803 377.503 636.537C370.484 644.548 363.016 652.165 355.984 660.166C348.827 668.31 342.139 676.869 334.937 684.972C324.817 696.359 314.486 707.562 304.087 718.696C300.611 722.418 296.651 725.688 292.741 729.323C299.987 728.668 307.033 728.031 314.364 727.652C301.705 729.88 288.763 731.861 275.816 733.804C274.549 733.994 273.246 733.948 271.531 734.023C273.141 730.576 275.239 727.668 279.624 726.249C282.492 725.321 284.573 721.835 286.904 719.396C294.359 711.593 301.955 703.913 309.131 695.86C315.035 689.235 320.4 682.13 326.045 675.273C327.773 673.175 329.617 671.171 331.445 669.158C341.17 658.447 351.033 647.857 360.581 636.991C364.62 632.395 368.006 627.224 372.177 621.947C378.168 621.605 383.67 621.632 389.172 621.658Z" fill="#FF991C" style="fill:#FF991C;fill:color(display-p3 1.0000 0.6000 0.1098);fill-opacity:1;"></path>
<path d="M452.756 14.8553C463 19.1024 473.594 22.2132 481.528 30.1714C483.786 32.4365 485.695 35.0456 487.883 37.3853C495.153 45.1581 499.69 55.2672 509.069 61.3366C511.566 62.9524 512.274 67.1002 514.382 69.5962C520.173 76.4519 526.27 83.0477 532.423 89.9437C529.922 92.9888 529.695 95.4469 533.393 97.9599C534.555 98.75 534.122 101.889 534.376 104.305C526.897 104.666 519.46 104.676 511.53 104.318C511.133 102.322 510.932 100.605 511.385 99.0823C512.579 95.0679 512.927 91.4948 508.406 89.2581C507.717 88.9171 507.04 88.3716 506.592 87.7509C500.628 79.4845 494.79 71.1255 488.747 62.9178C483.731 56.1052 479.179 48.7487 473.18 42.9103C464.14 34.1134 454.206 26.1543 442.219 21.3872C445.623 19.2371 449.027 17.0869 452.756 14.8553Z" fill="#318EFD" style="fill:#318EFD;fill:color(display-p3 0.1922 0.5569 0.9922);fill-opacity:1;"></path>
<path d="M656.301 239.682C666.496 237.843 676.066 239.861 685.608 243.485C689.67 245.028 694.552 244.258 698.93 245.172C702.207 245.857 705.272 247.556 709.494 249.222C710.093 248.169 711.165 246.287 712.582 244.292C710.101 263.012 707.274 281.843 703.911 300.952C703.161 301.212 702.949 301.195 702.777 300.786C703.223 297.871 703.533 295.329 704.05 292.829C705.618 285.241 703.607 282.203 696.487 279.875C688.358 277.218 680.426 273.963 672.37 271.073C671.089 270.614 669.604 270.536 668.222 270.576C664.256 270.691 660.294 270.958 656.331 271.165C656.314 260.822 656.297 250.479 656.301 239.682Z" fill="#189ED9" style="fill:#189ED9;fill:color(display-p3 0.0941 0.6196 0.8510);fill-opacity:1;"></path>
<path d="M443.891 105.609C446.907 105.262 450.363 104.801 453.827 104.736C460.725 104.608 467.628 104.699 475.526 104.699C471.544 96.6738 468.732 88.9375 462.763 82.9587C452.363 72.542 442.42 61.5908 431.301 52.0054C426.421 47.7976 419.157 46.3089 412.899 43.7754C411.163 43.0724 409.151 43.0491 406.852 42.6522C411.444 39.4833 416.45 36.3761 421.885 33.3468C422.508 33.2269 422.702 33.0291 422.895 32.8312C422.895 32.8312 422.958 32.9181 423.163 32.8736C423.59 32.5708 423.812 32.3123 424.035 32.0539C424.035 32.0539 424.231 31.8977 424.747 31.9601C428.067 31.2254 430.251 31.951 432.608 33.8558C437.707 37.9773 443.296 41.4881 448.455 45.5409C454.198 50.0516 460.239 54.3733 465.164 59.6918C474.307 69.5676 482.862 80.0032 491.38 90.4365C493.841 93.4521 496.929 96.5864 494.101 101.53C492.409 104.488 495.396 104.707 497.575 104.727C497.575 104.727 497.575 105.137 497.58 105.342C479.835 105.59 462.084 105.632 443.891 105.609Z" fill="#3E84F9" style="fill:#3E84F9;fill:color(display-p3 0.2431 0.5176 0.9765);fill-opacity:1;"></path>
<path d="M498.021 104.718C495.393 104.707 492.406 104.488 494.098 101.53C496.926 96.5863 493.839 93.452 491.377 90.4365C482.86 80.0032 474.305 69.5676 465.161 59.6918C460.237 54.3733 454.195 50.0516 448.453 45.5409C443.293 41.4881 437.705 37.9773 432.605 33.8558C430.249 31.951 428.064 31.2254 424.867 31.9867C430.174 28.4816 435.875 25.0124 441.896 21.4652C454.203 26.1543 464.137 34.1134 473.177 42.9103C479.177 48.7487 483.729 56.1053 488.744 62.9178C494.788 71.1255 500.625 79.4845 506.589 87.7509C507.037 88.3716 507.715 88.9171 508.404 89.2581C512.925 91.4948 512.576 95.0679 511.382 99.0823C510.929 100.605 511.13 102.322 511.074 104.308C506.899 104.681 502.685 104.695 498.021 104.718Z" fill="#378AFC" style="fill:#378AFC;fill:color(display-p3 0.2157 0.5412 0.9882);fill-opacity:1;"></path>
<path d="M652.534 544.155C653.424 534.445 654.709 524.751 655.101 515.022C655.555 503.764 655.224 492.476 655.491 480.74C655.749 480.28 656.169 480.279 656.192 480.715C656.248 484.077 656.281 487.003 656.288 490.379C656.284 495.366 656.307 499.904 656.304 504.893C656.277 509.838 656.122 514.34 656.367 518.819C656.44 520.147 657.301 521.981 658.374 522.62C669.468 529.226 680.6 535.779 691.893 542.038C697.449 545.118 703.452 547.387 709.056 550.39C710.569 551.2 711.362 553.353 712.485 554.889C712.485 554.889 712.435 554.815 712.223 554.947C711.861 555.42 711.712 555.762 711.562 556.104C706.907 563.675 702.251 571.246 697.242 578.651C695.229 577.327 693.621 576.084 691.9 575.024C678.731 566.915 665.54 558.842 652.355 550.757C652.668 550.505 652.98 550.254 653.292 550.002C653.04 548.053 652.787 546.104 652.534 544.155Z" fill="#69D34E" style="fill:#69D34E;fill:color(display-p3 0.4118 0.8275 0.3059);fill-opacity:1;"></path>
<path d="M37.0747 374.713C35.4729 364.96 33.8711 355.208 32.5232 344.792C32.1861 340.792 31.595 337.456 31.0039 334.119C31.0039 334.119 31.0912 334.116 31.1066 333.72C31.1295 330.998 31.1369 328.672 31.3458 326.078C35.1139 323.005 38.5834 320.064 42.2677 317.423C49.9595 311.909 57.7031 306.462 65.5619 301.191C67.8585 299.65 70.8991 299.181 73.106 297.553C78.6227 293.482 83.8568 289.029 89.2097 285.182C89.2149 293.511 89.4378 301.396 89.0891 309.256C88.9725 311.883 88.1513 315.327 86.3468 316.876C80.6013 321.809 74.3025 326.112 68.0938 330.483C64.8667 332.755 61.3284 334.579 58.0222 336.746C53.6517 339.609 49.0845 342.272 45.1225 345.635C39.881 350.084 32.7512 353.665 36.7114 363.135C38.103 366.463 37.025 370.824 37.0747 374.713Z" fill="#EB168B" style="fill:#EB168B;fill:color(display-p3 0.9216 0.0863 0.5451);fill-opacity:1;"></path>
<path d="M319.852 727.026C320.934 723.834 321.748 720.206 323.856 717.645C329.228 711.118 334.681 704.498 341.016 698.962C350.35 690.805 355.717 679.53 364.439 670.983C369.962 665.571 375.687 660.319 380.755 654.502C385.343 649.237 389.105 643.259 393.34 637.678C396.342 633.722 399.564 629.934 402.601 626.004C403.445 624.912 403.98 623.582 405.109 621.981C410.418 621.61 415.275 621.618 420.133 621.626C420.273 627.252 415.273 629.464 412.473 633.133C411.533 634.364 410.291 635.397 409.516 636.714C406.546 641.76 403.842 646.968 400.75 651.935C399.686 653.645 397.777 654.829 396.254 656.254C393.079 659.221 389.701 662.001 386.77 665.192C378.75 673.923 370.824 682.745 363.052 691.697C358.881 696.502 355.149 701.686 351.135 706.631C347.921 710.589 344.673 714.527 341.263 718.314C339.156 720.655 339.906 721.876 342.64 723.092C342.04 723.634 341.248 723.89 339.872 723.843C335.994 724.201 332.7 724.861 329.406 725.521C329.406 725.521 329.317 725.477 328.914 725.345C326.16 725.775 323.807 726.336 321.454 726.897C321.027 726.957 320.6 727.016 319.852 727.026Z" fill="#FFAA16" style="fill:#FFAA16;fill:color(display-p3 1.0000 0.6667 0.0863);fill-opacity:1;"></path>
<path d="M37.0578 375.106C37.0254 370.824 38.1034 366.463 36.7118 363.135C32.7516 353.666 39.8815 350.084 45.1229 345.635C49.0849 342.272 53.6522 339.609 58.0227 336.746C61.3288 334.579 64.8671 332.755 68.0942 330.483C74.3029 326.112 80.6017 321.809 86.3472 316.876C88.1518 315.327 88.973 311.883 89.0895 309.256C89.4382 301.396 89.2153 293.511 89.2158 284.728C89.2174 273.154 89.2189 262.487 89.2203 251.82C89.2254 243.871 89.1625 235.921 89.2865 227.974C89.3152 226.134 89.982 224.303 90.5867 222.204C90.8843 246.285 90.9756 270.631 91.0077 294.977C91.0304 312.233 90.9731 329.489 90.616 347.193C89.9417 347.659 89.6029 347.676 89.2641 347.694C89.358 345.209 88.4396 344.383 86.1553 345.795C79.138 350.135 72.3614 354.944 65.0408 358.69C56.4566 363.083 48.4805 368.334 40.7364 373.963C39.5348 374.836 39.1667 377.36 39.0826 379.152C38.9504 381.968 39.3873 384.81 39.3437 387.938C38.4162 383.99 37.7283 379.745 37.0578 375.106Z" fill="#E31696" style="fill:#E31696;fill:color(display-p3 0.8902 0.0863 0.5882);fill-opacity:1;"></path>
<path d="M253.717 694.147C251.306 696.309 249.219 699.13 246.422 700.506C239.002 704.157 231.401 707.532 223.632 710.356C216.657 712.891 209.393 714.665 202.189 716.511C200.322 716.99 198.18 716.642 196.203 716.384C193.575 716.04 190.985 715.411 187.81 715.24C187.03 715.654 186.818 715.733 186.607 715.812C186.607 715.812 186.622 715.759 186.705 715.38C185.8 713.571 184.812 712.14 183.825 710.71C183.825 710.71 183.919 710.687 183.934 710.419C183.628 709.667 183.306 709.183 182.984 708.698C182.984 708.698 183.062 708.691 183.057 708.331C182.342 705.971 181.632 703.971 180.922 701.971C180.922 701.971 181.02 701.951 181.056 701.577C180.735 699.148 180.379 697.095 180.023 695.041C179.749 693.042 179.474 691.042 179.262 688.652C180.346 688.298 181.368 688.334 183.006 688.683C184.741 689.234 185.86 689.473 187.328 689.786C185.625 690.319 184.371 690.711 182.691 691.236C183.457 692.22 183.723 692.889 184.204 693.133C195.813 699.01 207.665 695.89 219.377 693.724C223.319 692.995 227.069 690.968 230.769 689.24C236.779 686.432 242.907 683.762 248.569 680.346C257.561 674.921 266.21 668.929 274.971 663.514C273.257 666.172 271.396 668.384 269.931 670.833C265.921 677.533 262.429 684.554 256.07 689.564C254.844 690.531 254.479 692.591 253.717 694.147Z" fill="#FF7B30" style="fill:#FF7B30;fill:color(display-p3 1.0000 0.4824 0.1882);fill-opacity:1;"></path>
<path d="M625.812 675.737C623.69 676.126 621.665 676.059 619.937 676.743C615.106 678.653 610.641 676.951 607.29 674.259C593.233 662.965 577.905 653.225 565.886 639.386C561.228 634.023 554.8 630.21 549.266 625.586C548.269 624.753 547.7 623.408 547.25 621.933C547.994 621.568 548.422 621.567 549.111 621.84C551.779 621.644 554.183 621.175 556.588 620.705C563.095 620.012 569.602 619.319 576.429 619.041C573.309 620.319 569.869 621.181 566.962 621.909C568.636 622.667 570.741 623.311 572.492 624.484C575.139 626.255 577.541 628.394 580.046 630.378C589.946 638.219 599.703 646.25 609.788 653.845C618.701 660.557 627.552 668.038 640.148 664.251C636.686 667.338 633.224 670.425 629.333 673.453C628.71 673.6 628.517 673.805 628.323 674.01C628.323 674.01 628.285 673.926 628.095 673.974C627.596 674.16 627.379 674.386 627.254 674.7C626.851 675.008 626.448 675.316 625.812 675.737Z" fill="#E1D91D" style="fill:#E1D91D;fill:color(display-p3 0.8824 0.8510 0.1137);fill-opacity:1;"></path>
<path d="M656.167 480.279C656.167 480.279 655.747 480.28 655.538 480.293C655.287 467.023 655.247 453.74 655.471 440.015C655.737 439.573 656.163 439.569 656.163 439.569C656.198 440.008 656.233 440.446 656.27 441.664C656.272 447.507 656.272 452.572 656.272 456.963C661.944 458.736 666.87 459.726 671.314 461.767C686.389 468.694 701.351 475.876 716.224 483.229C720.14 485.166 723.791 485.511 727.771 484.111C730.675 495.033 730.522 506.059 728.554 517.253C728.204 513.587 728.204 509.804 728.204 505.264C716.99 507.605 708.929 500.132 699.914 495.642C687.596 489.507 675.663 482.603 663.492 476.166C657.247 472.862 656.423 473.421 656.167 480.279Z" fill="#36CE6C" style="fill:#36CE6C;fill:color(display-p3 0.2118 0.8078 0.4235);fill-opacity:1;"></path>
<path d="M702.735 301.177C702.947 301.195 703.16 301.212 703.691 301.267C701.562 318.594 699.115 335.883 696.318 353.007C695.427 351.406 695.31 349.342 694.272 348.638C689.145 345.162 683.777 342.041 678.488 338.806C677.266 338.058 676.047 337.298 674.778 336.638C671.129 334.738 667.587 332.535 663.757 331.112C659.615 329.572 656.284 332.243 656.277 336.596C656.265 343.827 656.319 351.058 656.315 358.741C655.96 364.998 655.635 370.803 655.31 376.608C655.274 351.723 655.238 326.837 655.27 301.485C655.338 301.017 655.783 301.102 656.341 301.267C658.115 301.458 659.332 301.452 660.545 301.519C663.212 301.666 666.05 301.325 668.509 302.13C673.339 303.712 678.099 305.662 682.625 307.974C687.684 310.558 692.456 313.704 697.34 316.627C698.222 317.155 699.041 317.788 700.343 318.685C701.195 312.45 701.965 306.814 702.735 301.177Z" fill="#16ACBD" style="fill:#16ACBD;fill:color(display-p3 0.0863 0.6745 0.7412);fill-opacity:1;"></path>
<path d="M640.42 664.1C627.551 668.038 618.7 660.557 609.787 653.845C599.702 646.25 589.945 638.219 580.045 630.378C577.54 628.394 575.139 626.255 572.491 624.484C570.74 623.311 568.636 622.667 566.961 621.909C569.868 621.181 573.308 620.319 576.829 619.09C577.326 618.648 577.743 618.572 578.624 618.744C579.65 618.583 580.212 618.174 580.774 617.766C581.196 617.704 581.618 617.642 582.541 617.835C584.876 617.653 586.71 617.214 588.705 617.071C601.288 625.516 613.886 633.411 626.067 641.905C633.863 647.341 641.791 651.486 651.595 650.598C647.961 655.048 644.326 659.499 640.42 664.1Z" fill="#D5D922" style="fill:#D5D922;fill:color(display-p3 0.8353 0.8510 0.1333);fill-opacity:1;"></path>
<path d="M727.814 483.715C723.792 485.511 720.142 485.166 716.225 483.229C701.353 475.876 686.39 468.694 671.315 461.767C666.871 459.726 661.945 458.736 656.273 456.962C656.273 452.572 656.273 447.507 656.301 441.992C666.132 438.104 673.982 444.199 682.41 447.104C687.172 448.745 691.531 451.53 696.136 453.662C701.62 456.201 707.429 458.155 712.61 461.194C716.426 463.432 718.605 463.226 720.724 459.127C723.301 467.077 725.579 475.198 727.814 483.715Z" fill="#2BCB75" style="fill:#2BCB75;fill:color(display-p3 0.1686 0.7961 0.4588);fill-opacity:1;"></path>
<path d="M656.191 480.715C656.424 473.421 657.248 472.862 663.494 476.166C675.664 482.603 687.597 489.507 699.915 495.642C708.93 500.132 716.992 507.605 728.206 505.264C728.206 509.804 728.206 513.587 728.469 517.655C728.061 520.83 727.39 523.718 726.366 526.45C724.958 525.206 724.094 523.598 722.814 523.131C719.356 521.869 715.438 521.648 712.218 520.003C706.232 516.945 700.693 513.027 694.823 509.724C684.679 504.016 674.46 498.438 664.191 492.957C661.728 491.642 658.948 490.922 656.314 489.929C656.281 487.003 656.247 484.077 656.191 480.715Z" fill="#41CF63" style="fill:#41CF63;fill:color(display-p3 0.2549 0.8118 0.3882);fill-opacity:1;"></path>
<path d="M89.255 348.141C89.6026 347.676 89.9414 347.659 90.5351 347.64C90.8456 372.497 90.9013 397.355 90.6184 422.666C89.938 423.129 89.5961 423.139 89.2427 422.698C89.231 418.475 89.231 414.702 89.231 410.929C88.7282 410.511 88.2254 410.093 87.7226 409.674C76.0722 415.827 64.3922 421.925 52.7871 428.162C48.6958 430.361 48.176 434.202 48.5227 438.455C48.8135 442.024 48.6737 445.627 48.7245 449.215C46.4176 434.838 44.1056 420.463 41.8175 406.083C41.692 405.294 41.7654 404.474 41.7885 403.259C42.7135 405.52 43.5961 408.191 44.6801 411.47C50.9036 407.889 57.1049 404.068 63.5379 400.689C69.7212 397.442 76.0273 394.359 82.5026 391.76C87.0013 389.954 89.5795 387.92 89.3576 382.412C88.904 371.154 89.2371 359.865 89.255 348.141Z" fill="#C319AF" style="fill:#C319AF;fill:color(display-p3 0.7647 0.0980 0.6863);fill-opacity:1;"></path>
<path d="M656.29 490.379C658.95 490.923 661.73 491.642 664.193 492.957C674.461 498.438 684.68 504.016 694.824 509.724C700.694 513.027 706.234 516.945 712.22 520.003C715.439 521.648 719.357 521.869 722.815 523.131C724.095 523.598 724.96 525.206 726.071 526.685C726.129 527.077 726.199 527.365 725.847 527.701C725.415 528.954 725.334 529.87 725.253 530.787C725.253 530.787 725.239 530.647 724.956 530.798C724.489 531.563 724.304 532.178 724.12 532.792C723.167 535.07 722.215 537.347 720.753 539.93C715.822 538.051 711.316 536.015 706.994 533.645C700.388 530.024 693.937 526.121 687.365 522.435C680.659 518.673 673.838 515.112 667.16 511.301C663.452 509.186 659.934 506.739 656.33 504.442C656.308 499.904 656.286 495.366 656.29 490.379Z" fill="#4DD15C" style="fill:#4DD15C;fill:color(display-p3 0.3020 0.8196 0.3608);fill-opacity:1;"></path>
<path d="M626.171 591.515C629.511 587.719 632.852 583.922 636.527 580.333C637.799 581.924 638.417 583.882 639.72 584.602C652.216 591.504 664.83 598.192 677.401 604.959C678.205 605.392 678.932 605.969 679.695 606.479C675.991 612.445 672.287 618.411 668.248 624.146C666.426 622.809 665.067 621.421 663.418 620.677C661.884 619.985 659.787 620.418 658.372 619.602C648.139 613.702 637.972 607.682 627.89 601.528C625.498 600.069 623.505 597.957 621.328 596.145C622.426 594.997 623.523 593.849 625.135 592.589C625.824 592.156 625.997 591.835 626.171 591.515Z" fill="#ABD734" style="fill:#ABD734;fill:color(display-p3 0.6706 0.8431 0.2039);fill-opacity:1;"></path>
<path d="M90.7629 489.81C90.8579 499.11 90.7232 508.42 91.114 517.708C91.4898 526.64 92.4095 535.55 93.0498 544.901C77.083 534.166 64.2996 520.501 58.1992 500.778C58.2154 499.526 58.2504 499.009 58.6652 498.54C64.4562 497.205 69.8967 495.927 75.2697 494.41C80.2467 493.005 85.1516 491.344 90.2566 489.808C90.4252 489.82 90.7629 489.81 90.7629 489.81Z" fill="#5F22F2" style="fill:#5F22F2;fill:color(display-p3 0.3725 0.1333 0.9490);fill-opacity:1;"></path>
<path d="M651.854 650.403C641.793 651.486 633.864 647.341 626.069 641.905C613.888 633.411 601.29 625.516 589.023 617.008C589.342 616.168 589.505 615.686 589.668 615.203C589.668 615.203 589.984 615.022 590.494 615.281C594.043 613.99 597.082 612.44 600.121 610.89C600.121 610.89 600.306 610.702 600.735 610.695C601.453 610.421 601.743 610.155 602.033 609.888C602.033 609.888 602.075 609.94 602.345 609.897C603.059 609.533 603.501 609.213 603.944 608.892C603.944 608.892 604.02 608.938 604.312 608.942C605.049 608.957 605.492 608.968 605.993 609.313C608.995 611.416 611.927 613.208 614.888 614.951C620.656 618.345 626.673 621.375 632.164 625.168C640.762 631.108 649.421 636.599 660.258 637.157C657.543 641.507 654.827 645.858 651.854 650.403Z" fill="#C9D928" style="fill:#C9D928;fill:color(display-p3 0.7882 0.8510 0.1569);fill-opacity:1;"></path>
<path d="M656.348 358.289C656.321 351.058 656.267 343.827 656.279 336.596C656.286 332.243 659.617 329.572 663.759 331.112C667.589 332.535 671.131 334.738 674.78 336.638C676.049 337.298 677.268 338.058 678.49 338.806C683.779 342.041 689.147 345.162 694.274 348.638C695.312 349.342 695.429 351.406 695.989 353.225C696.008 353.608 695.991 354.02 695.678 354.506C695.366 362.722 695.366 370.453 695.366 378.183C694.841 378.246 694.316 378.309 693.79 378.372C693.184 377.724 692.633 377.011 691.961 376.439C687.157 372.352 682.884 367.095 677.364 364.538C670.844 361.519 664.401 356.701 656.348 358.289Z" fill="#17B4AD" style="fill:#17B4AD;fill:color(display-p3 0.0902 0.7059 0.6784);fill-opacity:1;"></path>
<path d="M656.316 358.741C664.4 356.701 670.843 361.519 677.363 364.538C682.883 367.095 687.156 372.352 691.96 376.439C692.632 377.011 693.183 377.724 693.789 378.372C694.314 378.309 694.839 378.246 695.364 378.183C695.364 370.453 695.364 362.722 695.653 354.71C696.277 363.154 696.349 371.901 697.059 380.596C697.428 385.123 698.923 389.559 699.881 394.806C699.701 397.315 699.904 399.753 697.046 398.433C689.478 394.94 682.066 391.105 674.491 387.624C670.348 385.719 666.112 383.789 661.709 382.762C658.945 382.117 655.973 383.054 656.207 387.363C656.487 392.505 656.321 397.671 656.348 402.826C656.305 414.773 656.262 426.72 656.192 439.118C656.164 439.569 655.738 439.573 655.525 439.561C655.274 418.875 655.236 398.2 655.254 377.066C655.636 370.803 655.961 364.998 656.316 358.741Z" fill="#18BA9E" style="fill:#18BA9E;fill:color(display-p3 0.0941 0.7294 0.6196);fill-opacity:1;"></path>
<path d="M660.244 637.143C649.421 636.599 640.762 631.108 632.164 625.168C626.673 621.375 620.656 618.345 614.888 614.951C611.927 613.208 608.994 611.416 605.987 609.01C605.902 608.172 605.879 607.971 605.855 607.771C605.909 607.418 606.103 607.181 606.783 607.21C607.291 607.147 607.453 606.932 607.615 606.716C607.615 606.716 607.692 606.808 607.908 606.781C608.342 606.476 608.561 606.199 608.78 605.921C608.78 605.921 608.794 606.012 609.076 605.993C609.762 605.565 610.166 605.154 610.57 604.744C610.57 604.744 610.625 604.889 610.825 604.851C611.238 604.53 611.452 604.249 611.666 603.967C611.666 603.967 611.69 604.066 611.885 604.064C612.268 603.753 612.456 603.444 612.643 603.134C615.34 600.899 618.037 598.664 621.032 596.287C623.506 597.957 625.499 600.069 627.891 601.528C637.974 607.682 648.14 613.703 658.374 619.603C659.788 620.418 661.885 619.985 663.419 620.677C665.069 621.421 666.428 622.809 667.952 624.308C666.396 627.338 664.802 629.977 662.687 632.948C661.521 634.573 660.875 635.867 660.229 637.16C660.229 637.16 660.23 637.128 660.244 637.143Z" fill="#BCD82D" style="fill:#BCD82D;fill:color(display-p3 0.7373 0.8471 0.1765);fill-opacity:1;"></path>
<path d="M656.704 402.866C656.322 397.671 656.488 392.505 656.208 387.363C655.974 383.054 658.946 382.117 661.71 382.762C666.112 383.789 670.349 385.719 674.492 387.624C682.067 391.105 689.478 394.94 697.047 398.433C699.905 399.753 699.702 397.315 699.881 395.182C703.488 405.547 707.067 416.305 710.708 427.44C707.386 421.417 700.423 420.727 694.901 417.638C682.938 410.945 669.935 407.134 656.704 402.866Z" fill="#1BC093" style="fill:#1BC093;fill:color(display-p3 0.1059 0.7529 0.5765);fill-opacity:1;"></path>
<path d="M656.303 504.894C659.932 506.739 663.451 509.186 667.158 511.301C673.837 515.112 680.657 518.673 687.364 522.435C693.935 526.12 700.386 530.024 706.992 533.645C711.315 536.015 715.82 538.051 720.596 540.239C718.301 544.99 715.654 549.737 712.745 554.687C711.361 553.353 710.568 551.2 709.056 550.39C703.451 547.387 697.448 545.118 691.892 542.039C680.6 535.779 669.467 529.226 658.373 522.62C657.3 521.981 656.439 520.147 656.367 518.819C656.122 514.34 656.277 509.838 656.303 504.894Z" fill="#5AD255" style="fill:#5AD255;fill:color(display-p3 0.3529 0.8235 0.3333);fill-opacity:1;"></path>
<path d="M90.8544 489.377C90.7651 489.81 90.4274 489.82 89.998 489.526C89.5686 478.637 89.5686 468.042 89.5686 455.866C76.4077 461.932 64.9271 467.224 53.4265 472.132C52.8774 470.772 52.3484 469.795 51.8194 468.819C51.066 464.19 50.3126 459.562 49.8984 454.663C50.8344 454.44 51.8455 454.72 51.9681 454.501C57.0399 445.451 66.4529 443.68 74.994 440.093C79.8264 438.064 86.4731 437.74 88.3113 431.154C89.025 428.597 88.9638 425.824 89.2555 423.149C89.5974 423.139 89.9392 423.129 90.5374 423.11C90.8437 445.048 90.8937 466.996 90.8544 489.377Z" fill="#A11CC2" style="fill:#A11CC2;fill:color(display-p3 0.6314 0.1098 0.7608);fill-opacity:1;"></path>
<path d="M89.2423 422.698C88.9622 425.824 89.0235 428.597 88.3098 431.154C86.4716 437.739 79.8249 438.064 74.9924 440.093C66.4513 443.68 57.0384 445.451 51.9665 454.501C51.8439 454.72 50.8328 454.44 49.9583 454.267C49.3516 452.739 49.0229 451.338 48.7091 449.576C48.6734 445.627 48.8132 442.024 48.5224 438.455C48.1757 434.202 48.6955 430.361 52.7868 428.162C64.3919 421.925 76.0718 415.827 87.7223 409.674C88.2251 410.092 88.7279 410.511 89.2307 410.929C89.2307 414.702 89.2307 418.475 89.2423 422.698Z" fill="#B41AB8" style="fill:#B41AB8;fill:color(display-p3 0.7059 0.1020 0.7216);fill-opacity:1;"></path>
<path d="M679.968 606.277C678.931 605.969 678.204 605.392 677.4 604.959C664.829 598.192 652.215 591.504 639.719 584.602C638.416 583.882 637.798 581.923 636.808 580.175C636.755 579.81 636.806 579.854 637.029 579.764C637.418 579.363 637.583 579.053 637.748 578.742C637.748 578.742 637.755 578.852 637.889 578.828C638.13 578.752 638.335 578.668 638.33 578.65C638.264 578.438 638.166 578.237 638.077 578.033C641.339 572.001 644.6 565.969 648.163 560.112C646.812 565.421 648.293 568.792 653.802 570.07C654.668 570.271 655.369 571.129 656.182 571.623C666.077 577.638 676.001 583.604 685.845 589.701C686.902 590.356 687.502 591.75 688.314 592.801C685.623 597.225 682.932 601.649 679.968 606.277Z" fill="#99D63B" style="fill:#99D63B;fill:color(display-p3 0.6000 0.8392 0.2314);fill-opacity:1;"></path>
<path d="M688.61 592.639C687.501 591.75 686.901 590.356 685.844 589.701C676 583.605 666.076 577.638 656.182 571.624C655.368 571.129 654.667 570.271 653.801 570.07C648.292 568.793 646.812 565.421 648.422 559.888C648.381 559.488 648.431 559.541 648.74 559.418C649.423 557.709 649.798 556.122 650.173 554.536C650.173 554.536 650.189 554.677 650.445 554.566C650.688 553.61 650.675 552.766 650.662 551.922C651.226 549.575 651.789 547.228 652.443 544.518C652.785 546.104 653.038 548.053 653.291 550.002C652.978 550.254 652.666 550.505 652.354 550.757C665.538 558.842 678.729 566.915 691.898 575.025C693.619 576.084 695.227 577.327 696.958 578.834C694.321 583.614 691.614 588.045 688.61 592.639Z" fill="#87D542" style="fill:#87D542;fill:color(display-p3 0.5294 0.8353 0.2588);fill-opacity:1;"></path>
<path d="M31.1438 326.346C31.1363 328.672 31.1289 330.998 31.0968 333.763C29.4674 325.38 27.8728 316.556 26.2523 307.738C25.6606 304.518 25.0072 301.31 24.4492 297.705C24.9169 297.312 25.3173 297.311 26.0224 297.726C26.6528 300.679 26.8767 303.234 27.3242 305.75C28.547 312.624 29.864 319.482 31.1438 326.346Z" fill="#FE166E" style="fill:#FE166E;fill:color(display-p3 0.9961 0.0863 0.4314);fill-opacity:1;"></path>
<path d="M51.9258 469.229C52.3489 469.795 52.8779 470.772 53.4546 472.518C55.0975 481.69 56.6928 490.091 58.2881 498.493C58.2531 499.01 58.2182 499.526 58.1506 500.43C56.5287 493.584 54.8681 486.366 53.3835 479.113C52.7449 475.993 52.4712 472.799 51.9258 469.229Z" fill="#7432C4" style="fill:#7432C4;fill:color(display-p3 0.4549 0.1961 0.7686);fill-opacity:1;"></path>
<path d="M18.6328 259.969C19.4293 261.72 20.4771 263.819 20.8199 266.028C21.8165 272.448 22.5307 278.913 23.3198 285.825C21.71 277.65 20.1361 269.009 18.6328 259.969Z" fill="#FE166E" style="fill:#FE166E;fill:color(display-p3 0.9961 0.0863 0.4314);fill-opacity:1;"></path>
<path d="M343.627 56.8474C336.219 55.3282 328.579 53.5222 320.922 51.3423C328.401 52.8324 335.898 54.6965 343.627 56.8474Z" fill="#FE166E" style="fill:#FE166E;fill:color(display-p3 0.9961 0.0863 0.4314);fill-opacity:1;"></path>
<path d="M291.859 44.6964C289.646 43.8676 287.831 43.0409 285.863 41.9061C290.129 42.7063 294.548 43.8146 299.149 45.2389C296.972 45.2695 294.614 44.984 291.859 44.6964Z" fill="#FE166E" style="fill:#FE166E;fill:color(display-p3 0.9961 0.0863 0.4314);fill-opacity:1;"></path>
<path d="M357.199 60.5071C352.989 59.7471 348.552 58.7222 343.941 57.3777C348.17 58.1194 352.571 59.1808 357.199 60.5071Z" fill="#FE166E" style="fill:#FE166E;fill:color(display-p3 0.9961 0.0863 0.4314);fill-opacity:1;"></path>
<path d="M310.712 48.1495C307.169 47.6558 303.383 46.8811 299.414 45.7954C302.977 46.2791 306.723 47.0738 310.712 48.1495Z" fill="#FE166E" style="fill:#FE166E;fill:color(display-p3 0.9961 0.0863 0.4314);fill-opacity:1;"></path>
<path d="M320.408 50.797C317.474 50.3778 314.326 49.6906 311.023 48.6738C313.977 49.0725 317.085 49.8007 320.408 50.797Z" fill="#FE166E" style="fill:#FE166E;fill:color(display-p3 0.9961 0.0863 0.4314);fill-opacity:1;"></path>
<path d="M31.0156 334.538C31.5931 337.456 32.1842 340.792 32.528 344.401C31.8636 341.434 31.4465 338.195 31.0156 334.538Z" fill="#FE166E" style="fill:#FE166E;fill:color(display-p3 0.9961 0.0863 0.4314);fill-opacity:1;"></path>
<path d="M643.7 107.187C641.377 107.68 638.909 107.89 638.914 103.895C640.476 104.637 642.015 105.77 643.7 107.187Z" fill="#1E98F7" style="fill:#1E98F7;fill:color(display-p3 0.1176 0.5961 0.9686);fill-opacity:1;"></path>
<path d="M329.812 725.49C332.699 724.861 335.993 724.201 339.551 723.796C336.617 724.52 333.418 724.989 329.812 725.49Z" fill="#FFA119" style="fill:#FFA119;fill:color(display-p3 1.0000 0.6314 0.0980);fill-opacity:1;"></path>
<path d="M285.554 41.3723C283.021 41.2647 280.25 40.867 277.223 40.2163C279.75 40.3362 282.533 40.7092 285.554 41.3723Z" fill="#FE166E" style="fill:#FE166E;fill:color(display-p3 0.9961 0.0863 0.4314);fill-opacity:1;"></path>
<path d="M586.59 688.543C589.031 688.033 591.471 687.733 594.366 687.466C592.329 688.089 589.838 688.681 586.966 689.224C586.584 689.175 586.589 688.754 586.59 688.543Z" fill="#F5D614" style="fill:#F5D614;fill:color(display-p3 0.9608 0.8392 0.0784);fill-opacity:1;"></path>
<path d="M179.723 695.223C180.382 697.095 180.738 699.148 181.048 701.626C180.475 699.835 179.947 697.62 179.723 695.223Z" fill="#FE6F31" style="fill:#FE6F31;fill:color(display-p3 0.9961 0.4353 0.1922);fill-opacity:1;"></path>
<path d="M321.828 726.924C323.804 726.336 326.157 725.775 328.934 725.3C326.973 725.908 324.589 726.429 321.828 726.924Z" fill="#FFA119" style="fill:#FFA119;fill:color(display-p3 1.0000 0.6314 0.0980);fill-opacity:1;"></path>
<path d="M180.953 702.342C181.633 703.971 182.343 705.971 183.036 708.363C182.34 706.741 181.662 704.727 180.953 702.342Z" fill="#FE6F31" style="fill:#FE6F31;fill:color(display-p3 0.9961 0.4353 0.1922);fill-opacity:1;"></path>
<path d="M363.629 62.1352C361.888 61.9446 359.786 61.667 357.633 61.0308C359.477 61.1309 361.372 61.5894 363.629 62.1352Z" fill="#FE166E" style="fill:#FE166E;fill:color(display-p3 0.9961 0.0863 0.4314);fill-opacity:1;"></path>
<path d="M183.875 711.039C184.812 712.14 185.8 713.571 186.705 715.353C185.723 714.259 184.824 712.814 183.875 711.039Z" fill="#FE6F31" style="fill:#FE6F31;fill:color(display-p3 0.9961 0.4353 0.1922);fill-opacity:1;"></path>
<path d="M705.975 164.867C705.296 164.222 704.518 163.3 703.777 162.014C704.502 162.629 705.189 163.609 705.975 164.867Z" fill="#199AE4" style="fill:#199AE4;fill:color(display-p3 0.0980 0.6039 0.8941);fill-opacity:1;"></path>
<path d="M436.027 709.725C437.452 709.372 439.287 709.051 441.561 708.756C440.147 709.106 438.292 709.431 436.027 709.725Z" fill="#FFBF12" style="fill:#FFBF12;fill:color(display-p3 1.0000 0.7490 0.0706);fill-opacity:1;"></path>
<path d="M660.48 636.992C660.872 635.867 661.518 634.573 662.497 633.23C662.132 634.395 661.433 635.61 660.48 636.992Z" fill="#C9D928" style="fill:#C9D928;fill:color(display-p3 0.7882 0.8510 0.1569);fill-opacity:1;"></path>
<path d="M403.125 714.549C404.249 714.211 405.778 713.892 407.731 713.596C406.614 713.936 405.072 714.252 403.125 714.549Z" fill="#FFB613" style="fill:#FFB613;fill:color(display-p3 1.0000 0.7137 0.0745);fill-opacity:1;"></path>
<path d="M396.367 715.437C397.472 715.09 398.967 714.814 400.873 714.57C399.775 714.904 398.266 715.206 396.367 715.437Z" fill="#FFB613" style="fill:#FFB613;fill:color(display-p3 1.0000 0.7137 0.0745);fill-opacity:1;"></path>
<path d="M431.133 710.556C431.738 710.156 432.665 709.811 433.729 709.739C433.062 710.212 432.258 710.412 431.133 710.556Z" fill="#FFBF12" style="fill:#FFBF12;fill:color(display-p3 1.0000 0.7490 0.0706);fill-opacity:1;"></path>
<path d="M701.861 158.508C701.479 158.829 701.004 158.857 700.172 158.888C699.824 158.136 699.834 157.382 699.877 156.25C700.529 156.653 701.148 157.434 701.861 158.508Z" fill="#199AE4" style="fill:#199AE4;fill:color(display-p3 0.0980 0.6039 0.8941);fill-opacity:1;"></path>
<path d="M708.634 170.114C707.996 169.369 707.313 168.299 706.656 166.877C707.319 167.612 707.954 168.701 708.634 170.114Z" fill="#199AE4" style="fill:#199AE4;fill:color(display-p3 0.0980 0.6039 0.8941);fill-opacity:1;"></path>
<path d="M595.621 687.58C596.36 687.177 597.474 686.805 598.969 686.454C598.232 686.853 597.115 687.232 595.621 687.58Z" fill="#F5D614" style="fill:#F5D614;fill:color(display-p3 0.9608 0.8392 0.0784);fill-opacity:1;"></path>
<path d="M601.41 686.378C601.683 685.932 602.25 685.524 602.969 685.36C602.648 685.874 602.177 686.146 601.41 686.378Z" fill="#F5D614" style="fill:#F5D614;fill:color(display-p3 0.9608 0.8392 0.0784);fill-opacity:1;"></path>
<path d="M713.787 183.299C713.381 182.677 712.915 181.735 712.496 180.413C712.938 181.014 713.333 181.996 713.787 183.299Z" fill="#199AE4" style="fill:#199AE4;fill:color(display-p3 0.0980 0.6039 0.8941);fill-opacity:1;"></path>
<path d="M725.52 530.57C725.331 529.87 725.412 528.954 725.785 527.837C725.981 528.542 725.885 529.448 725.52 530.57Z" fill="#41CF63" style="fill:#41CF63;fill:color(display-p3 0.2549 0.8118 0.3882);fill-opacity:1;"></path>
<path d="M712.641 433.353C712.307 432.918 711.909 432.156 711.574 431.032C711.95 431.456 712.265 432.24 712.641 433.353Z" fill="#1BC093" style="fill:#1BC093;fill:color(display-p3 0.1059 0.7529 0.5765);fill-opacity:1;"></path>
<path d="M712.559 179.78C712.217 179.365 711.836 178.625 711.473 177.54C711.834 177.949 712.176 178.702 712.559 179.78Z" fill="#199AE4" style="fill:#199AE4;fill:color(display-p3 0.0980 0.6039 0.8941);fill-opacity:1;"></path>
<path d="M711.667 430.422C711.324 429.99 710.938 429.228 710.625 428.109C711.006 428.532 711.315 429.313 711.667 430.422Z" fill="#1BC093" style="fill:#1BC093;fill:color(display-p3 0.1059 0.7529 0.5765);fill-opacity:1;"></path>
<path d="M710.686 174.896C710.332 174.492 709.929 173.769 709.547 172.698C709.924 173.093 710.28 173.834 710.686 174.896Z" fill="#199AE4" style="fill:#199AE4;fill:color(display-p3 0.0980 0.6039 0.8941);fill-opacity:1;"></path>
<path d="M711.512 176.942C711.212 176.754 710.897 176.261 710.633 175.454C710.955 175.638 711.225 176.137 711.512 176.942Z" fill="#199AE4" style="fill:#199AE4;fill:color(display-p3 0.0980 0.6039 0.8941);fill-opacity:1;"></path>
<path d="M186.668 716.081C186.818 715.733 187.029 715.654 187.572 715.505C187.891 715.905 187.88 716.375 187.823 717.194C187.427 717.146 187.078 716.748 186.668 716.081Z" fill="#FE6F31" style="fill:#FE6F31;fill:color(display-p3 0.9961 0.4353 0.1922);fill-opacity:1;"></path>
<path d="M182.996 709.003C183.306 709.183 183.627 709.667 183.919 710.465C183.595 710.289 183.302 709.798 182.996 709.003Z" fill="#FE6F31" style="fill:#FE6F31;fill:color(display-p3 0.9961 0.4353 0.1922);fill-opacity:1;"></path>
<path d="M190.473 721.2C190.815 721.236 191.258 721.5 191.707 722.093C191.333 722.09 190.953 721.759 190.473 721.2Z" fill="#FF7B30" style="fill:#FF7B30;fill:color(display-p3 1.0000 0.4824 0.1882);fill-opacity:1;"></path>
<path d="M709.577 172.097C709.271 171.93 708.938 171.463 708.617 170.687C708.935 170.852 709.243 171.325 709.577 172.097Z" fill="#199AE4" style="fill:#199AE4;fill:color(display-p3 0.0980 0.6039 0.8941);fill-opacity:1;"></path>
<path d="M703.796 161.442C703.5 161.288 703.138 160.86 702.758 160.131C703.07 160.276 703.4 160.722 703.796 161.442Z" fill="#199AE4" style="fill:#199AE4;fill:color(display-p3 0.0980 0.6039 0.8941);fill-opacity:1;"></path>
<path d="M406.228 42.582C406.07 42.8969 405.619 43.2642 404.852 43.6182C405.001 43.2814 405.469 42.9579 406.228 42.582Z" fill="#3E84F9" style="fill:#3E84F9;fill:color(display-p3 0.2431 0.5176 0.9765);fill-opacity:1;"></path>
<path d="M724.406 532.658C724.303 532.178 724.488 531.563 724.998 530.853C725.114 531.346 724.904 531.934 724.406 532.658Z" fill="#41CF63" style="fill:#41CF63;fill:color(display-p3 0.2549 0.8118 0.3882);fill-opacity:1;"></path>
<path d="M706.67 166.335C706.464 166.349 706.212 166.128 706.023 165.649C706.448 165.489 706.627 165.725 706.67 166.335Z" fill="#199AE4" style="fill:#199AE4;fill:color(display-p3 0.0980 0.6039 0.8941);fill-opacity:1;"></path>
<path d="M187.816 717.723C188.027 717.664 188.323 717.858 188.675 718.323C188.455 718.388 188.179 718.182 187.816 717.723Z" fill="#FE6F31" style="fill:#FE6F31;fill:color(display-p3 0.9961 0.4353 0.1922);fill-opacity:1;"></path>
<path d="M188.691 718.77C188.923 718.704 189.229 718.889 189.54 719.358C189.286 719.435 189.026 719.227 188.691 718.77Z" fill="#FF7B30" style="fill:#FF7B30;fill:color(display-p3 1.0000 0.4824 0.1882);fill-opacity:1;"></path>
<path d="M189.527 719.86C189.792 719.788 190.102 719.929 190.299 720.335C189.863 720.561 189.659 720.386 189.527 719.86Z" fill="#FF7B30" style="fill:#FF7B30;fill:color(display-p3 1.0000 0.4824 0.1882);fill-opacity:1;"></path>
<path d="M192.633 723.511C192.825 723.45 193.135 723.632 193.542 724.076C193.343 724.143 193.047 723.948 192.633 723.511Z" fill="#FF7B30" style="fill:#FF7B30;fill:color(display-p3 1.0000 0.4824 0.1882);fill-opacity:1;"></path>
<path d="M193.641 724.495C193.841 724.438 194.142 724.632 194.531 725.088C194.326 725.149 194.034 724.947 193.641 724.495Z" fill="#FF7B30" style="fill:#FF7B30;fill:color(display-p3 1.0000 0.4824 0.1882);fill-opacity:1;"></path>
<path d="M195.582 726.397C195.762 726.323 196.072 726.489 196.513 726.888C196.333 726.96 196.022 726.798 195.582 726.397Z" fill="#FF7B30" style="fill:#FF7B30;fill:color(display-p3 1.0000 0.4824 0.1882);fill-opacity:1;"></path>
<path d="M423.764 32.0864C423.809 32.3124 423.587 32.5708 423.107 32.8832C423.065 32.6644 423.281 32.3916 423.764 32.0864Z" fill="#378AFC" style="fill:#378AFC;fill:color(display-p3 0.2157 0.5412 0.9882);fill-opacity:1;"></path>
<path d="M422.685 32.8781C422.699 33.0291 422.505 33.2269 422.206 33.2711C422.1 33.1176 422.478 32.9249 422.685 32.8781Z" fill="#378AFC" style="fill:#378AFC;fill:color(display-p3 0.2157 0.5412 0.9882);fill-opacity:1;"></path>
<path d="M627.511 674.711C627.378 674.386 627.595 674.16 628.14 673.974C628.174 674.191 627.971 674.456 627.511 674.711Z" fill="#EAD819" style="fill:#EAD819;fill:color(display-p3 0.9176 0.8471 0.0980);fill-opacity:1;"></path>
<path d="M628.537 673.951C628.515 673.805 628.709 673.6 629.019 673.529C629.136 673.663 628.752 673.892 628.537 673.951Z" fill="#EAD819" style="fill:#EAD819;fill:color(display-p3 0.9176 0.8471 0.0980);fill-opacity:1;"></path>
<path d="M711.798 555.954C711.71 555.762 711.86 555.42 712.266 554.95C712.36 555.149 712.197 555.477 711.798 555.954Z" fill="#5AD255" style="fill:#5AD255;fill:color(display-p3 0.3529 0.8235 0.3333);fill-opacity:1;"></path>
<path d="M698.985 154.613C698.756 154.66 698.437 154.418 698.055 153.872C698.293 153.819 698.594 154.072 698.985 154.613Z" fill="#199AE4" style="fill:#199AE4;fill:color(display-p3 0.0980 0.6039 0.8941);fill-opacity:1;"></path>
<path d="M699.874 155.665C699.671 155.717 699.389 155.518 699.051 155.058C699.261 155.003 699.528 155.209 699.874 155.665Z" fill="#199AE4" style="fill:#199AE4;fill:color(display-p3 0.0980 0.6039 0.8941);fill-opacity:1;"></path>
<path d="M404.327 43.6313C404.366 43.8549 404.121 44.1516 403.583 44.5051C403.54 44.2761 403.791 43.9903 404.327 43.6313Z" fill="#3E84F9" style="fill:#3E84F9;fill:color(display-p3 0.2431 0.5176 0.9765);fill-opacity:1;"></path>
<path d="M570.143 360.205C569.182 403.387 557.738 442.705 532.361 477.494C529.902 480.865 527.229 484.116 524.345 487.125C523.298 488.218 521.352 488.95 519.801 488.978C510.454 489.146 501.103 489.061 491.211 489.061C518.492 448.964 529.272 404.357 529.437 356.865C529.602 309.533 519.372 264.87 493.083 223.801C503.372 223.801 513.091 223.717 522.803 223.918C523.903 223.94 525.126 225.427 526.03 226.463C546.393 249.797 558.804 277.045 565.245 307.122C568.954 324.437 570.659 341.99 570.143 360.205Z" fill="#FEFEFE" style="fill:#FEFEFE;fill:color(display-p3 0.9961 0.9961 0.9961);fill-opacity:1;"></path>
<path d="M218.88 325.337C212.84 383.904 222.789 438.559 254.299 488.953C244.762 488.953 235.326 489.141 225.911 488.787C224.118 488.72 222.047 486.816 220.711 485.244C203.461 464.936 191.465 441.789 184.149 416.226C177.431 392.754 174.974 368.703 176.44 344.411C178.95 302.833 191.469 264.753 217.418 231.565C221.219 226.702 224.96 223.645 231.676 224.345C238.619 225.069 245.695 224.506 253.354 224.506C232.667 255.175 222.89 289.06 218.88 325.337Z" fill="#FEFEFE" style="fill:#FEFEFE;fill:color(display-p3 0.9961 0.9961 0.9961);fill-opacity:1;"></path>
<path d="M303.068 331.184C320.798 331.184 338.044 331.179 355.29 331.186C361.449 331.188 363.051 332.736 363.058 338.712C363.07 349.997 363.081 361.283 363.051 372.568C363.038 377.715 361.234 379.566 356.208 379.569C324.616 379.586 293.025 379.585 261.434 379.571C256.68 379.569 254.722 377.684 254.702 372.962C254.652 361.193 254.662 349.424 254.698 337.655C254.712 333.035 256.656 331.199 261.483 331.191C275.183 331.169 288.883 331.184 303.068 331.184Z" fill="white" style="fill:white;fill-opacity:1;"></path>
<path d="M473.372 331.184C477.721 331.184 481.587 331.217 485.453 331.175C489.588 331.13 491.709 333.11 491.708 337.262C491.705 349.346 491.69 361.43 491.668 373.514C491.66 377.682 489.51 379.593 485.383 379.59C453.649 379.569 421.916 379.557 390.183 379.603C385.937 379.609 384.059 377.646 384.072 373.486C384.109 361.402 384.017 349.318 384.125 337.235C384.168 332.403 385.747 331.19 391.22 331.188C418.444 331.178 445.666 331.184 473.372 331.184Z" fill="white" style="fill:white;fill-opacity:1;"></path>
<path d="M275.004 663.177C266.21 668.929 257.561 674.921 248.57 680.346C242.907 683.762 236.78 686.432 230.769 689.24C227.069 690.968 223.32 692.995 219.377 693.724C207.665 695.89 195.813 699.01 184.205 693.133C183.723 692.89 183.457 692.22 182.691 691.236C184.371 690.711 185.625 690.319 187.329 689.786C185.86 689.473 184.742 689.234 183.379 688.778C188.418 688.981 193.017 687.475 197.599 684.682C232.793 663.231 268.105 641.976 303.917 621.005C306.806 621.992 309.159 622.635 312.428 623.527C309.334 627.134 306.749 630.472 303.827 633.484C298.496 638.977 292.89 644.203 287.542 649.679C283.253 654.071 279.176 658.67 275.004 663.177Z" fill="#FE6F31" style="fill:#FE6F31;fill:color(display-p3 0.9961 0.4353 0.1922);fill-opacity:1;"></path>
<path d="M548.85 621.567C548.422 621.567 547.995 621.568 547.247 621.578C541.486 621.633 535.941 621.066 530.649 621.975C527.955 622.438 525.716 625.553 522.348 628.193C529.421 635.782 535.653 642.468 541.885 649.154C542.104 649.388 542.523 649.615 542.523 649.846C542.532 655.313 547.471 657.396 550.283 660.842C554.733 666.297 559.367 671.749 564.703 676.285C568.48 679.497 573.611 681.077 577.997 683.627C579.738 684.639 581.097 686.305 582.68 688C574.687 689.451 566.659 690.7 558.593 691.613C556.579 691.84 554.138 691.517 552.414 690.532C544.591 686.065 536.617 681.728 529.399 676.394C525.936 673.835 523.589 669.391 521.558 665.384C519.862 662.039 518.922 658.471 514.736 657.376C514.162 657.226 513.463 656.857 513.186 656.379C509.729 650.423 506.34 644.428 502.669 638.226C502.452 635.369 502.273 632.696 502.645 630.102C502.82 628.88 503.911 627.671 504.844 626.705C506.128 625.375 507.656 624.281 509.08 623.085C508.99 622.584 508.899 622.082 508.808 621.58C499.872 621.58 490.937 621.58 481.545 621.601C473.007 621.612 464.927 621.603 456.39 621.621C444.304 621.626 432.674 621.603 420.588 621.603C415.275 621.618 410.418 621.61 405.108 621.633C399.797 621.641 394.938 621.618 389.628 621.627C383.673 621.632 378.171 621.605 372.215 621.607C367.226 621.61 362.689 621.585 357.702 621.585C350.78 621.582 344.309 621.555 336.978 621.529C333.873 621.27 331.628 621.008 329.383 620.746C359.361 620.68 389.339 620.576 419.318 620.557C462.194 620.53 505.069 620.566 548.397 620.858C548.849 621.142 548.85 621.567 548.85 621.567Z" fill="#F5D614" style="fill:#F5D614;fill:color(display-p3 0.9608 0.8392 0.0784);fill-opacity:1;"></path>
<path d="M328.961 620.781C331.629 621.008 333.874 621.27 336.526 621.556C326.722 635.708 316.119 649.477 302.541 660.661C300.403 662.422 298.816 664.854 296.634 667.012C292.163 670.244 287.878 673.26 283.933 676.671C275.133 684.279 264.833 689.259 254.066 694.11C254.482 692.591 254.847 690.531 256.073 689.564C262.432 684.554 265.924 677.533 269.934 670.833C271.4 668.384 273.26 666.172 274.974 663.514C279.178 658.67 283.256 654.071 287.545 649.679C292.893 644.203 298.499 638.977 303.83 633.484C306.752 630.472 309.337 627.134 312.431 623.527C309.162 622.635 306.809 621.992 304.262 621.046C310.701 621.013 317.332 621.34 323.968 621.513C325.484 621.553 327.015 621.063 328.961 620.781Z" fill="#FF7B28" style="fill:#FF7B28;fill:color(display-p3 1.0000 0.4824 0.1569);fill-opacity:1;"></path>
<path d="M355.035 72.6521C356.873 71.4801 358.711 70.3081 360.961 69.208C361.61 69.1208 361.848 68.9617 362.085 68.8025C362.085 68.8025 362.09 68.87 362.435 68.8778C364.155 67.8886 365.529 66.8916 366.903 65.8945C366.903 65.8945 366.933 65.9581 367.303 65.9759C368.396 67.3117 369.47 68.5518 369.783 69.961C371.051 75.6693 371.81 81.5026 373.312 87.1422C374.158 90.3177 376.27 93.1323 377.488 96.2367C380.745 104.538 380.675 104.565 389.319 104.955C389.304 105.164 389.304 105.583 389.304 105.583C380.523 105.63 371.743 105.678 362.519 105.449C362.076 105.173 362.069 104.741 362.445 104.724C363.627 103.845 365.243 102.828 365.112 102.143C363.806 95.2844 362.975 88.1685 360.366 81.7987C359.141 78.8075 360.129 73.6381 355.035 72.6521Z" fill="#A11CC2" style="fill:#A11CC2;fill:color(display-p3 0.6314 0.1098 0.7608);fill-opacity:1;"></path>
<path d="M260.997 104.678C274.021 104.674 286.592 104.676 299.636 104.904C300.107 105.13 300.085 105.586 300.085 105.586C263.461 105.619 226.837 105.647 190.213 105.69C186.197 105.694 182.182 105.783 177.715 105.783C179.081 105.386 180.899 104.743 182.718 104.738C208.66 104.669 234.602 104.686 260.997 104.678Z" fill="#F41683" style="fill:#F41683;fill:color(display-p3 0.9569 0.0863 0.5137);fill-opacity:1;"></path>
<path d="M300.543 105.647C300.085 105.586 300.107 105.13 300.082 104.902C300.553 104.376 301.048 104.077 302.126 104.058C304.461 104.454 306.214 104.666 307.967 104.67C326.001 104.713 344.035 104.722 362.069 104.741C362.069 104.741 362.076 105.173 362.067 105.388C341.705 105.639 321.353 105.674 300.543 105.647Z" fill="#C319AF" style="fill:#C319AF;fill:color(display-p3 0.7647 0.0980 0.6863);fill-opacity:1;"></path>
<path d="M389.742 105.635C389.302 105.583 389.303 105.164 389.755 104.955C396.331 104.717 402.455 104.687 409.028 104.677C419.78 104.693 430.082 104.689 440.384 104.685C440.384 104.685 440.436 105.111 440.458 105.325C423.713 105.589 406.947 105.638 389.742 105.635Z" fill="#5F22F2" style="fill:#5F22F2;fill:color(display-p3 0.3725 0.1333 0.9490);fill-opacity:1;"></path>
<path d="M599.77 610.922C597.079 612.44 594.04 613.99 590.66 615.349C593.353 613.757 596.388 612.356 599.77 610.922Z" fill="#E1D91D" style="fill:#E1D91D;fill:color(display-p3 0.8824 0.8510 0.1137);fill-opacity:1;"></path>
<path d="M549.111 621.84C548.849 621.567 548.848 621.142 548.844 620.929C551.138 620.673 553.437 620.63 556.162 620.646C554.183 621.175 551.778 621.644 549.111 621.84Z" fill="#EAD819" style="fill:#EAD819;fill:color(display-p3 0.9176 0.8471 0.0980);fill-opacity:1;"></path>
<path d="M589.37 615.333C589.505 615.686 589.342 616.168 588.862 616.713C586.712 617.214 584.877 617.653 582.863 617.833C584.813 616.871 586.942 616.167 589.37 615.333Z" fill="#E1D91D" style="fill:#E1D91D;fill:color(display-p3 0.8824 0.8510 0.1137);fill-opacity:1;"></path>
<path d="M649.908 554.747C649.802 556.122 649.427 557.709 648.707 559.421C648.788 558.018 649.213 556.488 649.908 554.747Z" fill="#99D63B" style="fill:#99D63B;fill:color(display-p3 0.6000 0.8392 0.2314);fill-opacity:1;"></path>
<path d="M637.621 143.938C638.11 144.131 638.653 144.598 638.948 145.239C638.359 145.012 638.017 144.613 637.621 143.938Z" fill="#2397FE" style="fill:#2397FE;fill:color(display-p3 0.1373 0.5922 0.9961);fill-opacity:1;"></path>
<path d="M90.9143 207.771C90.7052 207.067 90.582 206.011 90.6457 204.746C90.8885 205.497 90.9443 206.458 90.9143 207.771Z" fill="#E31696" style="fill:#E31696;fill:color(display-p3 0.8902 0.0863 0.5882);fill-opacity:1;"></path>
<path d="M580.495 617.727C580.211 618.174 579.649 618.583 578.941 618.749C579.27 618.234 579.744 617.962 580.495 617.727Z" fill="#E1D91D" style="fill:#E1D91D;fill:color(display-p3 0.8824 0.8510 0.1137);fill-opacity:1;"></path>
<path d="M650.548 552.242C650.675 552.766 650.689 553.61 650.401 554.51C650.212 553.898 650.323 553.229 650.548 552.242Z" fill="#99D63B" style="fill:#99D63B;fill:color(display-p3 0.6000 0.8392 0.2314);fill-opacity:1;"></path>
<path d="M610.289 604.819C610.166 605.154 609.762 605.565 609.035 605.972C609.145 605.61 609.577 605.253 610.289 604.819Z" fill="#C9D928" style="fill:#C9D928;fill:color(display-p3 0.7882 0.8510 0.1569);fill-opacity:1;"></path>
<path d="M605.572 607.845C605.876 607.971 605.899 608.172 605.927 608.676C605.489 608.968 605.046 608.957 604.27 608.927C604.388 608.578 604.84 608.249 605.572 607.845Z" fill="#E1D91D" style="fill:#E1D91D;fill:color(display-p3 0.8824 0.8510 0.1137);fill-opacity:1;"></path>
<path d="M603.666 608.929C603.5 609.213 603.057 609.533 602.32 609.871C602.481 609.582 602.935 609.274 603.666 608.929Z" fill="#E1D91D" style="fill:#E1D91D;fill:color(display-p3 0.8824 0.8510 0.1137);fill-opacity:1;"></path>
<path d="M612.403 603.186C612.454 603.444 612.267 603.753 611.84 604.037C611.789 603.754 611.977 603.496 612.403 603.186Z" fill="#C9D928" style="fill:#C9D928;fill:color(display-p3 0.7882 0.8510 0.1569);fill-opacity:1;"></path>
<path d="M625.94 591.595C625.996 591.836 625.822 592.156 625.409 592.471C625.351 592.201 625.531 591.938 625.94 591.595Z" fill="#BCD82D" style="fill:#BCD82D;fill:color(display-p3 0.7373 0.8471 0.1765);fill-opacity:1;"></path>
<path d="M637.503 578.845C637.584 579.053 637.419 579.364 636.997 579.765C636.913 579.554 637.086 579.251 637.503 578.845Z" fill="#ABD734" style="fill:#ABD734;fill:color(display-p3 0.6706 0.8431 0.2039);fill-opacity:1;"></path>
<path d="M637.936 578.207C638.166 578.237 638.264 578.439 638.33 578.65C638.335 578.668 638.13 578.752 637.838 578.806C637.654 578.808 637.794 578.381 637.936 578.207Z" fill="#ABD734" style="fill:#ABD734;fill:color(display-p3 0.6706 0.8431 0.2039);fill-opacity:1;"></path>
<path d="M636.812 142.795C637.022 142.747 637.31 142.955 637.638 143.436C637.416 143.49 637.153 143.271 636.812 142.795Z" fill="#2397FE" style="fill:#2397FE;fill:color(display-p3 0.1373 0.5922 0.9961);fill-opacity:1;"></path>
<path d="M611.412 604.04C611.452 604.249 611.238 604.53 610.748 604.838C610.701 604.613 610.93 604.363 611.412 604.04Z" fill="#C9D928" style="fill:#C9D928;fill:color(display-p3 0.7882 0.8510 0.1569);fill-opacity:1;"></path>
<path d="M608.52 605.986C608.558 606.199 608.34 606.476 607.845 606.778C607.8 606.552 608.031 606.301 608.52 605.986Z" fill="#C9D928" style="fill:#C9D928;fill:color(display-p3 0.7882 0.8510 0.1569);fill-opacity:1;"></path>
<path d="M607.42 606.76C607.451 606.932 607.29 607.147 607.021 607.203C606.915 607.044 607.228 606.803 607.42 606.76Z" fill="#C9D928" style="fill:#C9D928;fill:color(display-p3 0.7882 0.8510 0.1569);fill-opacity:1;"></path>
<path d="M601.732 609.932C601.743 610.155 601.453 610.421 600.86 610.737C600.848 610.517 601.14 610.246 601.732 609.932Z" fill="#E1D91D" style="fill:#E1D91D;fill:color(display-p3 0.8824 0.8510 0.1137);fill-opacity:1;"></path>
<path d="M31.3467 326.078C29.8656 319.482 28.5486 312.624 27.3257 305.75C26.8783 303.234 26.6544 300.679 26.3242 297.726C27.8606 296.496 30.1746 296.072 30.8155 294.803C34.7519 287.008 40.8672 281.402 47.6653 276.2C51.4002 273.342 54.0814 269.063 57.9044 266.373C64.5407 261.704 71.1252 256.761 79.5971 255.412C82.678 254.922 85.5475 253.103 88.8671 251.855C89.2193 262.487 89.2179 273.154 89.2108 284.275C83.8577 289.029 78.6236 293.482 73.107 297.553C70.9 299.181 67.8595 299.65 65.5628 301.191C57.7041 306.462 49.9604 311.909 42.2686 317.423C38.5843 320.064 35.1149 323.005 31.3467 326.078Z" fill="#F41683" style="fill:#F41683;fill:color(display-p3 0.9569 0.0863 0.5137);fill-opacity:1;"></path>
<path d="M408.577 104.657C402.453 104.687 396.33 104.717 389.769 104.746C380.673 104.565 380.742 104.538 377.485 96.2367C376.268 93.1324 374.155 90.3178 373.309 87.1422C371.808 81.5027 371.048 75.6693 369.78 69.961C369.467 68.5518 368.394 67.3117 367.266 65.9682C367.745 65.3138 368.628 64.685 369.859 64.0645C377.343 65.8088 384.48 67.545 391.733 69.8605C391.762 71.8241 391.182 73.4143 391.663 74.5599C395.199 82.9939 398.866 91.3232 405.778 97.8102C407.413 99.3443 407.681 102.336 408.577 104.657Z" fill="#7432C4" style="fill:#7432C4;fill:color(display-p3 0.4549 0.1961 0.7686);fill-opacity:1;"></path>
<path d="M409.029 104.677C407.683 102.336 407.416 99.3443 405.781 97.8102C398.869 91.3232 395.202 82.9939 391.666 74.5599C391.185 73.4143 391.764 71.8241 392.004 70.104C410.647 75.4228 425.453 86.4353 437.725 101.13C438.546 102.112 439.366 103.096 440.286 104.382C430.083 104.689 419.781 104.693 409.029 104.677Z" fill="#6237CB" style="fill:#6237CB;fill:color(display-p3 0.3843 0.2157 0.7961);fill-opacity:1;"></path>
<path d="M362.446 104.724C344.035 104.722 326.001 104.713 307.967 104.67C306.214 104.666 304.461 104.454 302.426 104.058C303.994 102.661 305.845 101.545 307.926 100.189C317.504 94.4886 326.831 88.9924 336.206 83.5799C341.291 80.6443 346.459 77.8513 352.141 74.7444C352.917 74.1975 353.141 73.9002 353.365 73.6029C353.757 73.3096 354.148 73.0163 354.788 72.6875C360.13 73.6381 359.141 78.8074 360.366 81.7986C362.975 88.1684 363.807 95.2843 365.113 102.143C365.243 102.828 363.628 103.845 362.446 104.724Z" fill="#B41AB8" style="fill:#B41AB8;fill:color(display-p3 0.7059 0.1020 0.7216);fill-opacity:1;"></path>
<path d="M366.57 65.9308C365.528 66.8916 364.154 67.8886 362.402 68.8676C363.429 67.8887 364.833 66.9279 366.57 65.9308Z" fill="#7432C4" style="fill:#7432C4;fill:color(display-p3 0.4549 0.1961 0.7686);fill-opacity:1;"></path>
<path d="M361.854 68.83C361.845 68.9617 361.608 69.1208 361.275 69.1296C361.18 68.9792 361.625 68.8574 361.854 68.83Z" fill="#7432C4" style="fill:#7432C4;fill:color(display-p3 0.4549 0.1961 0.7686);fill-opacity:1;"></path>
<path d="M353.119 73.7231C353.141 73.9003 352.916 74.1976 352.409 74.5632C352.375 74.3688 352.624 74.1061 353.119 73.7231Z" fill="#A11CC2" style="fill:#A11CC2;fill:color(display-p3 0.6314 0.1098 0.7608);fill-opacity:1;"></path>
<path d="M702.776 300.786C701.965 306.814 701.195 312.45 700.343 318.685C699.041 317.788 698.222 317.155 697.34 316.627C692.456 313.704 687.684 310.558 682.625 307.974C678.099 305.662 673.339 303.712 668.509 302.131C666.05 301.325 663.213 301.666 660.545 301.519C659.332 301.452 658.115 301.458 656.567 301.26C656.248 291.416 656.262 281.744 656.302 271.619C660.293 270.958 664.255 270.691 668.221 270.576C669.603 270.536 671.087 270.614 672.369 271.073C680.425 273.963 688.357 277.218 696.486 279.875C703.606 282.203 705.617 285.241 704.049 292.829C703.532 295.329 703.222 297.871 702.776 300.786Z" fill="#16A4CC" style="fill:#16A4CC;fill:color(display-p3 0.0863 0.6431 0.8000);fill-opacity:1;"></path>
<path d="M58.666 498.54C56.6908 490.092 55.0956 481.69 53.4727 472.902C64.9256 467.224 76.4062 461.932 89.5671 455.866C89.5671 468.042 89.5671 478.637 89.828 489.514C85.1523 491.344 80.2475 493.005 75.2705 494.41C69.8975 495.927 64.457 497.205 58.666 498.54Z" fill="#8D1FCC" style="fill:#8D1FCC;fill:color(display-p3 0.5529 0.1216 0.8000);fill-opacity:1;"></path>
</g>
<defs>
<clipPath id="SvgjsClipPath1058">
<rect width="716" height="734" fill="white" style="fill:white;fill-opacity:1;" transform="translate(14 5)"></rect>
</clipPath>
</defs>
</svg><style>@media (prefers-color-scheme: light) { :root { filter: none; } }
@media (prefers-color-scheme: dark) { :root { filter: none; } }
</style></svg>